<?xml version="1.0" encoding="UTF-8"?>
<svg xmlns="http://www.w3.org/2000/svg" version="1.1" viewBox="0 0 707.8 100.6">
  <defs>
    <style>
      .cls-1 {
        fill: #73216d;
      }

      .cls-2 {
        fill: #e5a923;
      }

      .cls-3 {
        fill: #f2deaf;
      }
    </style>
  </defs>
  <!-- Generator: Adobe Illustrator 28.7.1, SVG Export Plug-In . SVG Version: 1.2.0 Build 142)  -->
  <g>
    <g id="_图层_1" data-name="图层_1">
      <path class="cls-1" d="M63.7,80.1c.9,0,5.2-1.5,6.8-2.4,8.9-4.7,16.7-11.1,21.7-19.8,4.1-7.1,4.3-15.8,5-23.7.8-10.2.8-20.5.6-30.8,0-.7-14.7-2.3-16.2-2.5-5.9-.5-13.9-.9-17.8-.9s-12,.4-17.9.9c-1.5.1-16.2,1.8-16.2,2.5-.2,10.3-.2,20.5.6,30.8.7,7.9.9,16.6,5,23.7,5.1,8.8,12.8,15.2,21.7,19.8,1.7.9,5.9,2.4,6.8,2.4"/>
      <path class="cls-2" d="M85.7,41h0,0M89.3,41.6h0M88.7,43.6h0,0M87.4,48.1h0M87.5,39.5h-.2.2M64.6,64.1c-.3,0-.6.2-.9.3h0c.3,0,.5-.2.8-.3M81.6,18.2l-.3.2c0,0,.2-.1.3-.1h0M84.9,7h0M83.6,12.1h-.2c0,.1.2,0,.2,0h0M88.2,45.9h0M87.9,25.4s.2-.1.3-.2c0,0-.2.1-.3.2h0M81.7,33h0-.2,0ZM91.3,19.2v.9c-.8,12.2-4.6,16.6-8.2,19.3h0c-1.1.9-2.4,1.9-4.8,2.7h0c-.4.2-1.8.6-2.2,1.2-.3.6-.4.6-.5.6s0-.9.2-1.1c.3-.5.7-.8,1.6-1.2,1.6-.8,1.8-1.7,1.8-2.2s-.5-1.4-1.2-1.7c-.5-.2-1,0-1.4.3,0,0,.5.2.6.8,0,.9-.4,1.3-.8,1.3s-1.1-.3-1.2-1c-.2-1.3.5-2.1.9-2.4.5-.3.9-.5,1.2-.6l.7-.2c1.1-.2,1.8.4,2.2.7.2,0,.3.2.3.2h0c.2-.4,0-1.6-.3-2.3h0c1,0,1.5.5,1.8.9,0,0,.2.3.2.2h0c0-.4-.2-1.8-.5-2.4h0c1-.3,1.6.3,1.9.6,0,0,.2.2.3.2h0c0-.4-.3-1.7-.7-2.4l.2-.2c1-.4,1.6,0,1.9.2,0,0,.2.1.3.1h0c0-.4-.4-1.6-.8-2.2l.2-.2c.8-.3,1.4,0,1.7,0h.3c0-.3-.4-1.4-.8-1.8l.2-.2c.7-.2,1.3,0,1.6,0h.3c0-.4-.4-1.5-.7-1.7h0c.7-.6,1.3-.5,1.7-.5h.3c0-.3-.5-1-.9-1.3.8-1.5,1.4-3,1.8-4.3.4-1.6.5-1.6.5-1.6v1.6M71.8,47.5h0c-1.1,1.9-2.5,3-6.1,3h-2.1v-2h1.9c2.9,0,4.9-.4,5.7-1.1.4-.3.5-.3.6-.3v.4M63.7,33.4h.7c1.7,0,2.5.8,2.5,2.6s-.4,2.6-3.2,2.8v-5.3h0ZM63.7,4.6c1.7.6,2.7,2.1,2.6,3.9-.2,1.8-1.3,3.3-2.5,3.5v-7.4h-.1ZM93.3,24.9v-.5c.4-.1,2-.8,2.3-2.9v-1.1h0c-.3.4-1.3,1.4-1.9,1.2,0,0-.2-.1-.3-.3,0-2.1-.2-3.8-.4-5.9.6-.3,1.9-1.3,1.9-3.2v-.9h0c-.3.5-1.2,1.5-1.7,1.4,0,0-.2,0-.3-.2v-.3c-.4-4.4-1.4-6.7-3.2-7.6h0s0,.2.2.3c.3.4.7,1.1.9,1.8.3,1.3.4,2.4.4,3.3s0,1.8-.3,2.4c-.2.4-.6.7-1,.8-1,.2-2.2-.9-2.5-1.8h0s-.2.2-.3.4c-.3,1.2,0,2.7.9,3.3.3.2.8.4,1.3,0,.3-.2.5-.3.7-.2,0,0,0,0,.2.2-.4,1.1-.8,2.1-1.3,3.2-.3.2-.6.4-.9.4-1.1,0-2.1-1.3-2.3-2.3h0s-.3.2-.4.4c-.6,1.2-.4,2.8.3,3.5.3.3.7.5,1.4.2.3-.2.6-.2.7-.1,0,0,0,0,0,.2-.6,1-1.2,2.1-1.8,3.1-.2.2-.5.2-.8.2-1.2,0-2-1.4-2.1-2.3h0s-.3.2-.5.4c-.8,1.1-.8,2.7-.2,3.5s.9.6,1.5.3c.4-.1.6-.2.7-.1h0c-.7,1-1.3,1.8-2.1,2.7-.5.3-.9.4-1.4.4-1.3-.2-2.1-2-2.1-3.2s0,0,0-.1c0,0-.4.2-.5.3-1,1.2-1.2,3.1-.6,4.2.2.4.7.8,1.6.6.4-.1.7,0,.8,0v.3l-2.1,1.9c-.5.3-1.3.7-2.2.4-1.4-.5-1.9-2.7-1.6-4.1h0c0-.1-.5,0-.7.2-1.3,1.2-2.1,3.3-1.6,4.6.2.5.6,1.1,1.7,1.1s.9,0,.9.2,0,.3-.4.6c-.3.2-.6.4-.9.7-.6.8-.9,1.4-1,2.1v.8c0,.6,0,1.2-.3,1.8,0,.6-.3,1.1-.5,1.5-1.3,2.4-4.3,3.6-7.5,4.1v-4.4c3.9,0,5.5-1.8,5.5-5.6s-1.2-4.6-3.9-4.7c-.5,0-1.1,0-1.7.3v-2.5c1.9-.9,4.1-1.9,6.4-2.5,5.3-1.3,9.5-4.3,11-7.4.2-.5.3-.9.4-1.4-.3.2-3.8,2.4-6.4,3h-.4c-.3.1-.7.2-.9,0,0,0,0-.2,0-.4,0-1.4.8-2.5,2.2-3.1h0c3.2-1.4,5.7-2.5,6.9-4.1.3-.4.5-.9.7-1.5-.3.1-4,2.1-6.3,2.4h0c-.3,0-.8.2-1,0,0-.1-.2-.4,0-.7.3-1.1.7-1.7,1.6-2.2s1.9-1,2.9-1.4c1.7-.7,3.1-1.4,3.9-2.3v-.2h0c0-.2.2-.4.3-.6l-3.5,1.1-.7.2c-1,.3-2,.6-2.3.3,0-.1,0-.3,0-.6.2-.6.3-.9.6-1.3,1.3-1.8,3.9-3.8,7.1-3.2h.8s0,0-.5-.3c-2.4-.9-4.6-.8-6.6.2-3.7,1.9-6.7,6.9-8.9,15-1.3,4.6-4.2,6.3-7.1,7.6v-10.3c1.1-.4,2-1,2.8-1.8,2.2-2.2,3-5,2.1-7.4-.7-2-2.5-3.3-4.4-3.5h-.5v-1.5c-3.7,0-11.2.3-17.1.9-2.1.2-15.5,1.7-15.5,2.4,0,3.5-.1,6.9-.1,10.4,0,6.4.2,12.8.7,19.2l.2,2.5c.5,7,1.1,14.2,4.6,20.3,4.4,7.7,11.4,14.1,20.8,19.1.6.3,3.3,1.7,5.5,2.2h.9v-11c3.1,0,8,0,9.3-.4,1.2-.4,2-1.4,2.2-2.7.2-1.5-.4-3.2-1.4-4-.2,0-.4,0-.4,0v.2c0,.2.3.6.3,1.3s-.2,1.2-.7,1.6c-1.2,1.1-3.7,1-3.7,1h-5.7c1.6-.4,2.8-1.5,3.2-2.4,1.2-2.2.2-3.7,0-4.2h.6-.5c.7,0,1.4,0,2-.2-.4,0-.9.2-1.4.2,5.9-.3,7.2-5.7,7.9-8.6v-.5c.3-.9.9-2.4,2.2-2.8.8-.3,1.4-.6,1.8-.8l.5-.2h.2c.8,0,.7.7.7,1.1v.4h.2c.7-.4,1-1.6,1.1-2.3h0v-.2c.8.3.9.8.9,1h0q0,0,.2,0c.6-.5.7-1.6.7-2.2h0c1,0,1.1.6,1.2.9h0q0,0,.2,0c.5-.5.5-1.7.5-2.2h0c.6,0,.8.5.9.8v.2h.2c.6-.9.6-2,.5-2.4h0c.7,0,.8.4.9.7v.2l.2-.2c.5-.6.4-1.8.3-2.4.9-1,1.4-1.9,1.6-2.5,0-.5.2-.5.2-.5,0,0,0,.3,0,.4,0,1.6-.5,3.6-.9,5.6h0c0,.4,0,.7-.2,1h0c-.3-.2-1-.3-1.2-.2v.3c.3.3.5,1,.5,1.5v.2h0c-.3-.2-.9-.2-1.1,0,0,0,0,.2,0,.3.4.4.5,1.2.4,1.8v.3h0c-.3-.3-1-.3-1.2-.2s0,.2,0,.3c.3.3.4,1.3.3,1.9v.3h0c-.3-.3-.9-.4-1-.3v.3c.4.6.3,1.8.2,2.2-1.9,4.2-4,6.4-6.3,6.5-1.9,0-2.8-1.6-3-2.8-.2-1.7,1.5-2.9,2.5-3.3.7-.3,1.2,0,1.3.3.6.7.5,1.2.3,1.5-.2.4-.7.6-1,.5-.6,0-1,0-1.2.6-.2.4,0,.9.3,1.1.6.4,1.3.4,2,0,.9-.4,1.7-1.3,1.8-2.1.2-.7,0-2-.6-2.5-1.2-1.6-2.6-2.1-3.9-1.3-2.3,1.4-3.6,3-3.7,4.7,0,1.5.7,3,2.4,4.6,2.1,1.8,5.4.7,6.9-.9h.2c.4.1,2.2.6,3.8-1,.2-.2.4-.4.6-.7h-.2c-.5,0-1.8.2-2.1-.2v-.4c.9-1.3,1.8-2.9,2.6-4.9.4,0,2.2-.2,3-2.2,0-.3.2-.7.3-1h0c-.4.3-1.7,1-2.1.7,0,0-.2-.3,0-.6.5-1.6.9-3.3,1.2-5.2.6,0,2.2-.5,2.8-2.7,0-.3,0-.5,0-.9h0c-.4.4-1.5,1.1-2,.9,0,0-.2-.2-.2-.3.3-1.7.5-3.5.7-5.5.3,0,2.5-.8,2.5-3.6v-.3h0c-.4.3-1.4,1.2-1.9,1.1,0,0-.2-.1-.3-.3l.2-4.5v-.7h0l-.4-1.3ZM81.8,43.7h.2-.2ZM83.8,42.4h0Z"/>
      <path class="cls-1" d="M60.9,35.3c0,.2,0,.5.2.5,0,0,.2,0,.4-.2l.2-.4c.3-.9.7-1.6,2.1-1.8v-1.6c-1.4.5-2.7,1.6-2.9,3.5M40.4,44.9h-.2.2ZM40.3,45h0l-.5-3.7v-.4h-.7c-5.2,1.7-5.2,3.7-4.8,7.3,0,.2.3.7.5.7h0c0-.4.3-.8.3-1,1.5-2.7,4.1-2.9,5.1-2.9M56.5,30.6c-.6.9-1,2.8-1,5.9,0,4.8,3.7,5.5,7.8,5.5h.5v-3.3h-.5c-3.4,0-4.7-.3-4.7-3s1.5-4.6,3.7-5.5l1.4-.6h0v-3.5c-.4.2-.7.3-1.1.5-2.2,1-4.5,2-6.2,4.1M59.1,4.8c-.2.3-.4.6-.3.7,0,0,.2,0,.3,0,1.3-1.1,2.8-1.4,4.5-.9h.2v-1.7c-3,0-4.3,1.4-4.7,1.8M43.3,37.1c0,.9.7,1.6,1.6,1.6s1.6-.7,1.6-1.6-.7-1.5-1.6-1.5-1.6.7-1.6,1.5M48.4,14.4h0M47.2,37.1c0,1.2-1,2.2-2.3,2.2s-2.3-1-2.3-2.2,1-2.2,2.3-2.2,2.3,1,2.3,2.2M62.7,11.7c-.3-.3-.3-1.8-.3-1.8,0-1.9-1.6-2.6-2.9-2.6s-3,.8-3,2v4.8c0,.3,0,.5-.2.6,0,.1-.3.2-.6.2-.5,0-.9-.3-.9-.7v-2.6c0-2.9-3.3-3.4-5.3-3.4s-5.8,1.3-5.8,3.6v11.9c0,.6-.4,1.1-.8,1.3-.3.2-.6.2-.8,0-.2-.1-.4-.4-.4-1.2s0-.2,0-.2c0,0-.2,0-.4.3-.3.9-.3,1.7,0,2.4.5.9,1.5,1.5,2,1.6v1.6h0c-1.9,0-4.1-.8-4.1-4.2V9.1c0-2.5-1-3.3-1.9-3.6-1.6-.5-3.7.6-4.6,1.9-.9,1.3-.6,2.6,0,3.3.6.8,1.7,1.1,2.7.6,0,0,.2-.1.2-.2,0,0,0-.1-.2-.1-.7-.1-1-.5-1-1.2s.6-1.3,1.3-1.3,1.3.6,1.3,1.3v16.5c-1.9,0-2.4,1.5-2.4,2.5s1,2,1.1,2h.2v-.3c-.2-.5-.2-.9,0-1.2.3-.4.9-.5,1.4-.5s.5.2.5.3c.7,2,2.5,3,5.6,3.1,0,0,.2,0,.3.2v.9c-1,.4-3,1.8-2.9,5.7,0,3,.7,7.2,1.2,7.6h0c2.5-.7,6.3-.8,8.2.4.3.2.4.3.4.5,0,0,0,.2-.2.2h-.3c-.8-.8-3.2-.9-3.9-1-2.6,0-8,.8-9.6,4.2-.9,1.9.9,5.8,1.9,7.1h.3s0,0,0-.2c-.4-1.9.4-3.8,2.2-5.4,2.2-1.9,5.3-2.7,7.3-2,.3,0,.5.3.5.5v.2h-.2c-2.6-1.1-5.3.6-5.4.6,1.2,6.8,9.5,6.7,15.6,6.5h2.1s2.3,2.3,2,4.2c0,.8-.7,1.4-1.6,1.8-.9.4-4.6.2-5,0-.2-.2-.3-.7-.2-1.2,0-.9.7-2.2,1.8-2.7,0,0,.2,0,.2-.2s-.4-.2-.7-.2c-2.1.3-3.6,1.3-4.2,2.9,0,.3-.2.5-.2.9,0,.7-.2.7-1.1.8h-.5c-1.7.3-2.6,1.1-2.8,2.4-.2,1.1.2,2.2.9,3,.6.7,1.4,1.1,2.2,1,0,0,0,0,0,0,0,0,0-.2-.2-.3-1-.5-1.2-1.4-1-2.1s.9-1.1,1.7-1.1c0,0,.4,0,.4.3v1c.4,2.1,2,3.9,3.9,4.4,0,0,.2,0,.2,0,0,0,0-.2-.3-.3-1-.8-1.4-2.2-1.4-3.4s.2-1.4.4-1.6c.4-.3,2-.5,2.7.2.8.8,1.1,1.5,1,2,0,.3-.4.6-.9.7v.2s0,.2.2,0c2-.3,2.7-1.9,2.7-3.2h0c0,0,0,0,.2,0h2.3v-17.2h-5.7c-1.3,0-1.8.6-1.9,1.1,0,.7.7,1.6,2.2,1.8l.3.2h-.3c-1,0-3,0-3.8-1.2-.5-.7-.5-1.7,0-2.4.5-.9,1.7-1.5,3.3-1.5h5.9v-2.3c-3,.4-6.1.2-8-.4-3.7-1.2-6.8-4.6-5.5-8.7.2-.6.6-1.2,1.2-1.8.8-.8,1.6-.8,1.9-.8h.2c0,0-.2-.4-.2-.4-1.3-1.5-6.6-2-7.7-1.5h0c-.4-.8-.6-5.8,1.3-7.1.8-.6,1.6-.8,2.2-.5.5.2.8.6,1,1.3.2.8,0,1.7-.5,2-.4.2-.9.2-1.4-.2,0-.1-.2-.3-.3-.4v-.2c0-.1-.2-.2-.3-.2s0,0,0,0c0,1.6.6,2.8,1.7,3.2,2,.8,4.3,0,5.7-2,1.3-1.8,1.8-4.9.6-6,0,0-.2-.1-.2,0,0,0,0,.4,0,.4,0,1.7-1.1,2.9-2.2,3.1-.9.2-1.7-.4-2.1-1.6,0,0,0-.2.3-.2.9,0,1.6-.3,2-1,.4-.9,0-2.2-.8-3h-.3c0,1.2-.2,1.9-.8,2.1-.6.1-1.3-.3-1.5-.9s.3-1.2,1.4-1.5h0v-.2c-1.4-.5-2.8,0-3.3,1.1-.3.7,0,2,.8,2.3h0c-.2.3-.9.6-1.5.4-.5-.1-1.1-.6-1.1-1.9v-7.9c0-.8.9-1.2,1.8-1.3.9,0,1.9.2,2,1,.2,1,0,1.2-.3,1.4-.6.3-1.1-.2-1.1-.2h0v.6c.2.4.8.8,1.5.9.7.1,1.2,0,1.5-.2.2-.2.4-.5.4-1v-1.3c0-.6.3-.9.6-.9s.6.2.6.7v4.5c0,2,1.6,2.9,3,2.9s3-.9,3-2.7v-4.1c0-.8.3-1.2.8-1.3.5,0,1.2.4,1.3,1.2.2.9,0,1.1,0,1.5v.3c0,0-.2.2-.2.2-.2.5-.3.7-.3.8h.5c1-.1,1.9-.4,2.7-.7v-3.9h0c-.4,0-.7,0-1-.2"/>
      <path class="cls-3" d="M126.6,86.9c-.2-3.1-2.9-5.2-15.2-2.4,0-1.4,0-2.7,0-3.3,0-2.4-2.6-3.7-7.7-3.5-2.5,0-3.8.2-4.8.3-3.4-2.7-4.4-6.9-4.2-10.6l4.9-5.7c1.3-1-3.1-5.5-7.4-4.3l-8.4,11.1c0,0,.3-.2.4-.3-2,2.6-1.9,7.5,1,12.4-6.9,1.2-14.8,2.3-20.4,2.3s-.7,0-1,0h-1c-5.6,0-13.5-1.1-20.4-2.3,2.9-4.9,3.1-9.8,1-12.4,0,0,.3.2.4.3l-8.4-11.1c-4.3-1.3-8.7,3.2-7.4,4.3l5,5.7c.2,3.8-.8,8-4.3,10.6-.9,0-2.3-.2-4.8-.3-5.1-.2-7.6,1.1-7.7,3.5,0,.6,0,1.8-.1,3.3-12.3-2.8-14.9-.7-15.2,2.4-.2,2.5-.3,7.4,0,9.2.3,1.8,3,3.2,5.9,3.7,6.7,1.2,19.5-.3,29.4-9,6.2,1.4,13.8,3.3,26.7,3.3s.7,0,1,0h1c12.9,0,20.5-1.8,26.7-3.3,9.8,8.7,22.7,10.2,29.4,9,2.9-.5,5.6-1.8,5.9-3.7.3-1.8.2-6.7,0-9.2"/>
      <path class="cls-1" d="M126.3,94.1l-.3-.3c-1.9-1.5-5.9-1-9.4-.4-1.1.2-2.4.6-3.8.9-3.1.8-7,1.9-8.4.9-.3-.2-.5-.6-.5-1s0-.4,0-.5c.4-.4,1.8-.3,3.1-.2,1.7,0,3.5.2,4.4-.7.4-.4.5-1.5.6-2.5v-5.3c6.8-1.5,11.2-1.6,13-.3.7.5,1.1,1.2,1.2,2.3.2,1.8.2,4.9.2,7.1M120.7,99.3c-5.5.9-18.1.3-28.3-8.3,3.7-.8,6.9-1.5,10.6-1.5-.4.8-.4,1.9-.5,2.5,0,1.5.2,3.2,1.1,3.9h0c1.8,1.2,5.6.2,9.2-.8,1.4-.4,2.7-.7,3.7-.9,3.6-.6,7.1-1,8.6.2.5.4.8.9.8,1.6-.3,1.4-2.5,2.7-5.5,3.2M90.9,90.4c-4.2,1-9.1,2.1-15.8,2.7v-.3s-.3-2.9-2-4.4c.5-.6,1.5-1.9,1.9-1.9s0,1.2.3,1.3c0,0,.8,0,.8,0,0-1.2-.6-4.5-3.8-4.2v-.8c5-.5,10.6-1.4,15.4-2.2-.2,0-.2.2-.2.3,0,.7.7.9,1.2.8.2,0,0,.3,0,.5-.2.2-.9.3-.9,1.2.2,2.8,2.1,1.4,2.2,1.7.2.6-1.2.3-1.2.8s1.7,0,1.7,0c.2.8-1.9.3-1.9,1.1s2.2,0,2.2,0c.2.8-1.2.3-1.2,1s.5.3.8.2c.6-.2,1.2-.4,1.7-.8.2.2.3.5.4.8,0,.4,0,.8,0,1.2h0c-.6.2-1.2.4-1.9.5M71.8,93.3v-.2c0-1.1.2-2.7.6-3.3.4-.7,1,.6,1.1.8.2.6.7,2.2.7,2.6-.8,0-1.6,0-2.4.2M70.9,93.3h0c-1.9,0-4,.2-6.3.2h-2c-4.3,0-7.9-.2-11.2-.5,0-.3-.3-1.2,0-1.3.5,0,1.1.6,1.4.2.6-1-.6-1.7-1.4-2.2.2-.2.5-.6.6-.6,1.3.8,3.6,1.1,3.8-.7.2-1.7,1.2-3.6.3-5.3h0c2.3,0,4.5.2,6.4.2s.7,0,1,0h1c1.9,0,4.1,0,6.4-.3v.2c0,.2.3.8-.5.9-1.9.2-2.5,4.8-1.5,4.9.7,0,.4-.8.5-1.1,0-.2,1.6.3,2.2.8-.5.9-.7,2-.8,3.1v1.5M51.4,87c.3,0,.6.7.8,1.2,0,.3-.3.9-.5.8-.9-.3-1.3-1.6-.3-2M50.3,92.9c-5.7-.6-10-1.6-13.8-2.5-2-.5-3.9-.9-5.7-1.2,0-2.2.5-4.7.2-6.9h-.8c.1,2.2-.6,4.5-.5,6.8-3.1-.5-6.2-.6-10,0-1.4.2-2.5.4-3.4,1v-1.1c0-1.3,0-3.5.2-7.2v-.3c.1-2.7,4-3.1,7.2-3,4.4,0,5.2.3,6.6.7.7.2,1.7.4,3.4.7,0,0,.2,0,.3,0,.8.3,1.5,1.9,1.5,3,0,2.2-1.1,4.4,0,6.6h.5c-.5-2.8,1.6-5.8,0-8.4,0-.2,0-.7.2-.9,4.5.8,10,1.7,15.2,2.4-.3.3-.9,1.1-1,1.5-.4,1.2.6,2.4-.3,3.6-.4.5.4,1.4.3,1.8-.2.9-1.8,1.6-1.2,2.5.6.7.9-1.2,1.3-1,.6.3.2,1.7,0,2M6.7,99.4c-3-.5-5.2-1.8-5.5-3.2,0-.7.3-1.2.8-1.6,1.5-1.2,5.1-.8,8.6-.2,1,.2,2.3.5,3.7.9,3.7,1,7.5,2,9.2.8h.1c.9-.6,1.1-2.4,1.1-3.9s-.1-1.7-.5-2.5c3.7,0,6.9.7,10.6,1.5-10.2,8.6-22.8,9.2-28.3,8.3M16.5,91.1c.6-.8,1.6-1,3.3-1.2,1.2-.2,2.3-.3,3.4-.3.3.3.6,1.2.6,2.5v.7c-.8-.5-2.1-.4-3.6-.3-1.4,0-3,.2-3.6-.4-.2-.2-.3-.5-.2-1M1.2,87c0-1.1.5-1.8,1.2-2.3,1.9-1.3,6.2-1.3,13,.3-.1,2.9-.1,4.4,0,5.3,0,1,.2,2.1.6,2.5.9.9,2.7.8,4.4.7,1.2,0,2.7-.2,3.1.2,0,0,.1.2.1.5,0,.5-.2.8-.5,1-1.4,1-5.3,0-8.4-.9-1.4-.4-2.7-.8-3.8-.9-3.5-.6-7.5-1.1-9.4.4-.1,0-.2.2-.4.3,0-2.2,0-5.3.1-7.1M32.6,73.1c.5-1.4.7-2.8.7-4.3l2.2,2.5c0,0,.2.2.4.2s.3,0,.4-.2c1.3-1.9,2.7-3.1,4.1-3.3.8,0,1.7,0,2.5.6.4.5.7,1.2,1,1.9.2.7.3,1.4.3,2.3,0,2.1-.7,4.7-2.2,7.3-2.6-.4-5.1-.9-7.2-1.2l-.9-.2c-1.7-.3-2.6-.5-3.3-.7-.3,0-.6,0-.9-.2,1.5-1.4,2.4-3.2,3-4.7M28.2,61.4h0c0-.2,0-.4.1-.6.7-1.4,3.7-3.6,6.7-2.8.2.3,5.1,6.7,7,9.2-.5-.2-1.1-.2-1.7,0-1.6.2-3.1,1.3-4.4,3.2-.7-.8-7.6-8.8-7.6-8.8M51.6,83.7c.2.2.5.4.6.7.3.6-.3.9-.6,1.3-.3-.4-.6-.8-.5-1.3,0-.2.3-.4.5-.7M52.5,82.7c1.1,0,2.3.3,3.4.4-.8.8.2,2.6-.9,3.2-.2-.5-.6-.4-.9-.3-.5,0-.4.7-.2.9.4.5,1.8.3,1.4,1.3-.2.7-.7,1.4-1.4.9-1.3-1-1.3-2.8-.8-4.4,0-.2,0-.9-.4-1.3s-.2-.5,0-.7M71.5,85.7h.7c.2-.3,0-1,.3-1,1.2,0,1.7.6,2,.9,0,0-1.7,1.6-2.2,2.4-.6-.4-1.6-.6-2.4-.8,0,0,0-.5.2-.9.5.5,1,1,1.8,1s1.9-1.6,1.5-1.9c-.6-.4-1,1.6-2.1.9-.4-.2-1-1-.3-1.2.2,0,0,.5.4.6M89.3,84.3c.2,0,.6-.2.7,0,0,0,0,.2,0,.3,0,0-.4.2-.6.2,0,0-.6-.3-.2-.6M88.7,81.1s0-.4-.2-.5c.2,0,.5,0,.7,0v.5c0,.2-.3.2-.5,0M89.2,83h0c0,0,.3-.3.5,0s0,.4,0,.6c-.2.2-.6,0-.7,0v-.3M83.3,72.8c0-.8,0-1.6.3-2.3.2-.7.5-1.4.9-1.9.8-.6,1.7-.8,2.5-.6,1.4.2,2.9,1.3,4.1,3.3,0,0,.2.2.4.2s.3,0,.4-.2l2.2-2.5c0,1.4.2,2.9.7,4.3.5,1.6,1.4,3.3,2.9,4.7-.3,0-.6,0-.9.2-.7.2-1.6.4-3.3.7l-.9.2c-1,.2-2,.4-3.1.6-.2,0-.4,0-.7,0h0c-1.1.2-2.3.4-3.5.6-1.5-2.6-2.2-5.2-2.2-7.3M92.4,57.9c3-.8,6,1.4,6.7,2.8,0,.2.2.3.2.5s0,0,0,0h0s-6.9,8-7.6,8.8c-1.4-1.8-2.9-3-4.4-3.2-.6,0-1.1,0-1.7,0,1.9-2.4,6.8-8.9,7-9.2M90.2,80.6v-.2c.2,0,.5,0,.7,0,0,0,0,.2,0,.3-.2,0-.4,0-.5,0M91.5,85.1c0-.2,1.1,0,1.2-.6,0-.2.2,0,.5.3.3,0,1.2-.3,1.8-.2,0,0,.8,4.2.7,4.9l-1.8.3c0-2.1-1-4.3-1.5-4.3s-1,.2-.9-.3M90.8,83.1c0,0,0-.4,0-.4,0,0,.4-.2.5,0,0,0,.2.2,0,.4,0,.2-.5.4-.7.2M91.5,83.9c.2,0,.4,0,.4.3s-.4.3-.5.3h-.4c0-.4,0-.6.5-.6M110.8,92.1c-.5.6-2.2.5-3.6.4s-2.8-.2-3.6.3v-.7c0-1.3.3-2.2.6-2.5,1.1,0,2.2,0,3.4.3,1.7.2,2.7.4,3.3,1.2,0,.5,0,.8-.2,1M103.7,78.3c3.2,0,7.1.3,7.2,3v.3c.2,3.7.2,5.9.2,7.2s0,.8,0,1.1c-.9-.7-2-.8-3.4-1-4.3-.6-7.7-.3-11.2.3v-.3c0-.3-.8-4.4-.6-4.6.3-.4,1.7,0,1.7-.8s-1.2-.4-1.8-.5q-.2,0-.2-.2c0-.3-.4-1.9-.7-2.2s-.6,0-.7.3c0,.5.7,2.4.3,2.4-.8,0-1.6.7-1.7.5,0-.4-.2-1-.4-1.4-.4-.5-1.7-.2-1.7-.4,0-.6.4-.5.6-.7.2,0,.3-.2.4-.4v-.8c.4,0,.9-.2,1.3-.2l.9-.2c1.7-.3,2.7-.5,3.4-.7,1.4-.3,2.1-.6,6.6-.7M127.3,86.9c0-1.3-.6-2.3-1.6-3-2.1-1.6-6.5-1.5-13.6,0v-2.7c0-1.9-1.6-4.2-8.3-4-2.3,0-3.7.2-4.6.3-1.8-1.4-2.8-3.2-3.3-4.8-.5-1.7-.7-3.4-.7-5.1l4.8-5.6c.2-.2.6-.8,0-1.8-.9-1.7-4.4-4.4-8-3.3,0,0-.2,0-.3.2l-8.4,11.1c0,0,0,.3,0,.4-.3.5-.5,1-.7,1.6-.2.8-.4,1.7-.4,2.6,0,2.3.8,4.9,2.2,7.4-6.8,1.1-14.3,2.1-19.7,2.1s-.7,0-1,0h-1c-5.4,0-12.9-1-19.7-2.1,1.4-2.5,2.2-5.1,2.2-7.4s0-1.8-.3-2.6c-.2-.6-.4-1.1-.7-1.6v-.4l-8.4-11.1s-.2,0-.2-.2c-3.6-1.1-7.1,1.6-8,3.3-.5,1-.1,1.6.1,1.8l4.8,5.6c0,1.7,0,3.5-.7,5.1-.5,1.6-1.5,3.4-3.3,4.8-.9,0-2.3-.2-4.6-.3-6.7-.2-8.2,2-8.2,4v.3c0,.9,0,1.7-.1,2.4-7.2-1.6-11.5-1.6-13.6,0-.9.7-1.5,1.7-1.6,3-.2,2.5-.3,7.5,0,9.4.4,2.3,3.6,3.6,6.3,4.1,5.8,1,19,.3,29.6-9h0c6.1,1.4,13.7,3.2,26.4,3.2h2c12.7,0,20.3-1.8,26.4-3.2h0c10.6,9.3,23.9,10,29.6,9,2.7-.5,6-1.8,6.3-4.1.3-1.9.2-6.9,0-9.4M33.2,81.3v-.5c-1.4-1.2-3.1-.6-4.7-.6s-.3.5-.3.8h.6c1.5-.2,2.9.6,4.5.2M32,82.6c.2.8,0,5.1.6,6.3.2.3.5,0,.5-.3.3-2,0-3.9-.4-6h-.8M28.5,82.5c-.2.6-.9,4.3-1,5.1h.5c.7-1.7,1.1-3.5,1.2-5.4-.3,0-.6,0-.8.3"/>
      <g>
        <path d="M150.5,79.8c0,1.1,0,1.8-.2,2.1-.2.3-.5.4-1.2.4h-1.3v.9h8.2v-.8h-1.3c-.7,0-1-.2-1.2-.5s-.2-1-.2-2.1v-11.8c0-1.1,0-2,.1-2.8h4.3c.8,0,1.1.2,1.1.9v2.2h1c0-1.5,0-3,.2-4.5h-16.1c.1,1.5.2,3,.2,4.5h.9v-2.2c.2-.7.4-.9,1.2-.9h4.3c0,.8.1,1.7.1,2.8v11.8h-.1Z"/>
        <path d="M162.6,80.3c0,.8,0,1.3-.1,1.6-.1.2-.4.4-.9.4h-1.3v.9h7v-.8h-1.3c-.5,0-.8-.2-.9-.5-.1-.3-.1-.9-.1-1.6v-5.9c0-1.1,1.7-2.6,3.4-2.6s3.2,1.2,3.2,3.6v7.9h4.5v-.8h-1.1c-.5,0-.8-.2-.9-.5-.1-.3-.1-.9-.1-1.6v-5.4c0-3-1.3-4.9-4.6-4.9s-1.6.2-2.3.7l-2.1,1.8h0v-9.5l-.2-.2c-1.4.6-2.9.8-4.4,1v.8h1.6c.6,0,.7.5.7,1.2v14.5h0Z"/>
        <path d="M182.8,70.1c-.9,0-1.8.3-2.7.8-.6.3-1.2.7-1.7,1.1-1.3,1-2,2.6-2,5.3s2.2,6.5,6.5,6.5,4.3-1.2,4.5-1.6l.6-.9-.4-.3c-1.1.6-2.1,1.3-3.5,1.3-3.4,0-5.1-2.2-5.1-5.5h4.1c1.7,0,3.4,0,5.1-.4v-1.2c0-3.2-2.3-5.1-5.3-5.1M182.7,71c2,0,3,2.1,3,4.7-2,0-4.4.2-6.6,0-.1-3,1.5-4.6,3.7-4.6"/>
        <path d="M212.2,80.8l-.3-.3c-1.3.9-3.7,1.7-5.7,1.7-5.5,0-9.2-3.6-9.2-9.1s2.8-8.6,8-8.6,2.2.2,3.1.5c1.3.5,2.4.9,2.4,1.7v2h.9c0-1.4.2-2.9.5-4.2-1.3-.5-3.9-1.1-6.5-1.1s-6,.9-8.1,2.7c-2.1,1.8-3.4,4.3-3.4,7.5,0,6.3,4.5,10.2,11.2,10.2s4.5-.5,6.1-1.5l.8-1.4h.2Z"/>
        <path d="M214.9,80.3c0,.8,0,1.3-.1,1.6-.1.2-.4.4-.9.4h-1.3v.9h7v-.8h-1.3c-.5,0-.8-.2-.9-.5-.1-.3-.1-.9-.1-1.6v-5.9c0-1.1,1.7-2.6,3.4-2.6s3.2,1.2,3.2,3.6v7.9h4.5v-.8h-1.1c-.5,0-.8-.2-.9-.5-.1-.3-.1-.9-.1-1.6v-5.4c0-3-1.4-4.9-4.6-4.9s-1.6.2-2.3.7l-2.1,1.8h0v-9.5l-.2-.2c-1.4.6-2.9.8-4.4,1v.8h1.6c.6,0,.7.5.7,1.2v14.5h0Z"/>
        <path d="M231.8,64c-.8,0-1.5.7-1.5,1.6s.7,1.5,1.5,1.5,1.6-.7,1.6-1.5-.8-1.6-1.6-1.6M233.1,70.2h-.2c-1,.3-2.7.9-4.4,1v.8h1c.6,0,.9,0,1,.3.1.2.2.8.2,1.7v6.3c0,.8,0,1.3-.1,1.6-.1.2-.4.4-.9.4h-1.3v.9h7v-.8h-1.3c-.5,0-.8-.2-.9-.5-.1-.3-.1-.9-.1-1.6v-10.1h0Z"/>
        <path d="M240,74.4c0-1.1,1.7-2.6,3.4-2.6s3.2,1.2,3.2,3.6v7.9h4.5v-.8h-1.1c-.5,0-.8-.2-.9-.5-.1-.3-.1-.9-.1-1.6v-5.4c0-3-1.3-4.9-4.6-4.9s-1.6.2-2.3.7l-2.1,1.8h0v-2.4h-.3c-1,.3-2.7.9-4.4,1v.8h1c.6,0,.9,0,1,.3.1.2.2.8.2,1.7v6.3c0,.8,0,1.3-.1,1.6-.1.2-.4.4-.9.4h-1.3v.9h7v-.8h-1.3c-.5,0-.8-.2-.9-.5-.1-.3-.1-.9-.1-1.6v-5.9h.1Z"/>
        <path d="M257.8,70.1c-.9,0-1.8.3-2.7.8-.6.3-1.2.7-1.7,1.1-1.3,1-2,2.6-2,5.3s2.2,6.5,6.5,6.5,4.3-1.2,4.5-1.6l.6-.9-.4-.3c-1.1.6-2.1,1.3-3.5,1.3-3.4,0-5.1-2.2-5.1-5.5h4.1c1.7,0,3.4,0,5.1-.4v-1.2c0-3.2-2.3-5.1-5.3-5.1M257.6,71c2,0,3,2.1,3,4.7-2,0-4.4.2-6.6,0-.1-3,1.5-4.6,3.7-4.6"/>
        <path d="M264.3,79.2c0,1.3,0,2.7-.3,3.9,1.4.5,2.6.7,3.9.7,3.1,0,6.2-1.6,6.2-4.7s-1.6-3-4.9-3.6c-2.1-.4-3-1-3-2.2s.4-2.3,2.8-2.3,3.2.8,3.2,2.3v.6h.8c0-1.1,0-2.2.1-3.2-1.1-.4-2.3-.7-3.6-.7-2.6,0-5.3,1.1-5.3,4.1s1,2.5,2.4,3.1c1.3.5,2.9.8,4.1,1.1.9.2,1.4.9,1.4,1.8,0,1.5-1.5,2.5-3.3,2.5s-3.6-.7-3.6-2.4v-1.1h-.9Z"/>
        <path d="M281.4,70.1c-1,0-1.8.3-2.7.8-.6.3-1.2.7-1.7,1.1-1.3,1-2,2.6-2,5.3s2.2,6.5,6.5,6.5,4.3-1.2,4.5-1.6l.6-.9-.4-.3c-1.1.6-2.1,1.3-3.5,1.3-3.4,0-5-2.2-5-5.5h4.1c1.7,0,3.4,0,5.1-.4v-1.2c0-3.2-2.3-5.1-5.3-5.1M281.2,71c2,0,3,2.1,3,4.7-2,0-4.4.2-6.6,0-.1-3,1.5-4.6,3.7-4.6"/>
        <path d="M294.8,77.2c0,5.1,2.8,6.5,7.5,6.5s7.9-2.4,7.9-8.4v-8.1c0-1.1,0-1.8.2-2.1.2-.3.5-.4,1.2-.4h1.2v-.9h-6.6v.8h1.2c.7,0,1,.2,1.2.5s.2,1,.2,2.1v8.9c0,4.6-2.7,5.8-5.8,5.8s-5.8-1.2-5.8-5.1v-9.6c0-1.1,0-1.8.2-2.1.2-.3.5-.4,1.2-.4h1.3v-.9h-8.1v.8h1.3c.7,0,1,.2,1.2.5s.3,1,.3,2.1v9.9h.2Z"/>
        <path d="M316.6,74.4c0-1.1,1.7-2.6,3.4-2.6s3.2,1.2,3.2,3.6v7.9h4.5v-.8h-1.1c-.5,0-.8-.2-.9-.5s-.1-.9-.1-1.6v-5.4c0-3-1.3-4.9-4.6-4.9s-1.6.2-2.3.7l-2.1,1.8h0v-2.4h-.2c-1,.3-2.7.9-4.4,1v.8h1c.6,0,.9,0,1,.3.1.2.2.8.2,1.7v6.3c0,.8,0,1.3-.1,1.6-.1.2-.4.4-.9.4h-1.3v.9h7v-.8h-1.3c-.5,0-.8-.2-.9-.5s-.1-.9-.1-1.6v-5.9h0Z"/>
        <path d="M331.1,64c-.8,0-1.5.7-1.5,1.6s.7,1.5,1.5,1.5,1.6-.7,1.6-1.5-.8-1.6-1.6-1.6M332.5,70.2h-.2c-1,.3-2.7.9-4.4,1v.8h1c.6,0,.9,0,1,.3.1.2.2.8.2,1.7v6.3c0,.8,0,1.3-.1,1.6-.1.2-.4.4-.9.4h-1.3v.9h7v-.8h-1.3c-.5,0-.8-.2-.9-.5s-.1-.9-.1-1.6v-10.1h0Z"/>
        <path d="M346.8,73.1c.4-.8.9-1.8,1.6-1.9h.9v-.8h-5.2v.8h1.1c.8,0,.9.9.1,2.8l-1.2,3c-.5,1.3-1.1,2.6-1.7,3.9l-3.3-8.1c-.5-1.2-.3-1.6.5-1.6h1.4v-.8h-6.5v.8h1c.5,0,.7.6.9,1l4.8,11.3h1.4c.4-.9.7-2,1.1-3.1l3.3-7.3h-.2Z"/>
        <path d="M356,70.1c-1,0-1.8.3-2.7.8-.6.3-1.2.7-1.7,1.1-1.3,1-2,2.6-2,5.3s2.2,6.5,6.5,6.5,4.3-1.2,4.5-1.6l.6-.9-.4-.3c-1.1.6-2.1,1.3-3.5,1.3-3.5,0-5.1-2.2-5.1-5.5h4.1c1.7,0,3.4,0,5.1-.4v-1.2c0-3.2-2.3-5.1-5.3-5.1M355.8,71c2,0,3,2.1,3,4.7-2,0-4.4.2-6.6,0-.1-3,1.5-4.6,3.7-4.6"/>
        <path d="M364.2,80.3c0,.8,0,1.3-.1,1.6-.1.2-.4.4-.9.4h-1.3v.9h7.5v-.8h-1.5c-.6,0-1.1-.2-1.2-.5s-.1-.9-.1-1.6v-4.8c0-1.8,1.2-3.1,2.5-3.1s1.6.6,1.9,1.3h.6l.2-3.4c-.2,0-.8-.3-1.3-.3s-1.7.3-2.4,1.2l-1.5,1.8h0v-2.8h-.2c-1,.3-2.7.9-4.4,1v.8h1c.6,0,.9,0,1,.3.1.2.2.8.2,1.7v6.3h0Z"/>
        <path d="M372.7,79.2c0,1.3,0,2.7-.3,3.9,1.4.5,2.6.7,3.9.7,3.1,0,6.2-1.6,6.2-4.7s-1.6-3-4.9-3.6c-2.1-.4-3-1-3-2.2s.4-2.3,2.7-2.3,3.2.8,3.2,2.3v.6h.8c0-1.1,0-2.2.1-3.2-1.1-.4-2.3-.7-3.6-.7-2.6,0-5.2,1.1-5.2,4.1s1,2.5,2.4,3.1c1.3.5,2.9.8,4.1,1.1.9.2,1.3.9,1.3,1.8,0,1.5-1.5,2.5-3.3,2.5s-3.6-.7-3.6-2.4v-1.1h-.8Z"/>
        <path d="M386.5,64c-.8,0-1.5.7-1.5,1.6s.7,1.5,1.5,1.5,1.6-.7,1.6-1.5-.8-1.6-1.6-1.6M387.8,70.2h-.2c-1,.3-2.7.9-4.4,1v.8h1c.6,0,.9,0,1,.3.1.2.2.8.2,1.7v6.3c0,.8,0,1.3-.1,1.6-.1.2-.4.4-.9.4h-1.3v.9h7v-.8h-1.3c-.5,0-.8-.2-.9-.5s-.1-.9-.1-1.6v-10.1h0Z"/>
        <path d="M392.6,72.5v8.1c0,2.3,1.3,3,2.7,3s1.6,0,1.8-.3l1.3-1.5-.4-.5c-.4.2-.9.5-1.6.5-1.2,0-1.5-.7-1.5-1.9v-7.3h3.6l.2-1.5-3.8.2v-1.1c0-1.2.1-2.7.3-4l-.3-.3c-.5.3-1.4.8-2.4,1.1,0,.8.1,1.5.1,2.2v2l-2.2,1v.6h2.1c0,0,0-.3,0-.3Z"/>
        <path d="M406.4,80.8l-3.2-7.8c-.6-1.5-.1-1.8.7-1.8h1.1v-.8h-6.4v.8h.5c.6,0,1,.4,1.5,1.4l4.6,11.3-.6,1.7c-.5,1.3-1.4,3.6-3,3.7-.4,0-1.1-.3-1.4-.7h-.4l-.7,2.1c.3.2.9.4,1.4.4,2.4,0,3.4-1.4,4.2-3.4l5.7-13.1c1.1-2.5,1.7-3.3,2.4-3.4h.8v-.8h-5.3v.8h.7c1,0,1.4.5,1,1.5l-3.3,8.2h-.3Z"/>
        <path d="M424.4,71c2.7,0,4.4,3.1,4.4,6.7s-1.1,5.1-3.6,5.1-4.6-3.9-4.6-6.8.9-5,3.9-5M424,83.7c4.3,0,7.3-3,7.3-7.3s-2.8-6.4-6.3-6.4-7.1,2.9-7.1,7.1,2.6,6.7,6.1,6.5"/>
        <path d="M441,63.1c-.4-.2-.9-.3-1.3-.3-.8,0-1.8.3-2.5,1.2l-1.6,1.8c-.8.9-1.2,2.2-1.2,4v1.2l-1.9.9v.6h1.9c0,0,0,7.8,0,7.8,0,.8,0,1.3-.1,1.6-.1.2-.4.4-.9.4h-1.3v.9h7v-.8h-1.3c-.5,0-.8-.2-.9-.5s-.1-.9-.1-1.6v-7.9h3.5l.2-1.5h-3.7c0,0,0-2.3,0-2.3,0-3.2.3-4,2-4s1.3.3,1.8.8l.3-.2v-2.2h.1Z"/>
        <path d="M465.9,67.3c0-1.1,0-1.8.2-2.1.2-.3.5-.4,1.2-.4h1.4v-.9h-8.2v.8h1.3c.7,0,1,.2,1.2.5s.3,1,.3,2.1v5h-11.1v-5c0-1.1,0-1.8.2-2.1.2-.3.5-.4,1.2-.4h1.3v-.9h-8.1v.8h1.3c.7,0,1,.2,1.2.5s.2,1,.2,2.1v12.5c0,1.1,0,1.8-.2,2.1-.2.3-.5.4-1.2.4h-1.3v.9h8.1v-.8h-1.3c-.7,0-1-.2-1.2-.5s-.2-1-.2-2.1v-6.2h11.1v6.2c0,1.1,0,1.8-.3,2.1-.2.3-.5.4-1.2.4h-1.3v.9h8.2v-.8h-1.4c-.7,0-1-.2-1.2-.5s-.2-1-.2-2.1v-12.5Z"/>
        <path d="M475.8,71c2.7,0,4.4,3.1,4.4,6.7s-1.1,5.1-3.6,5.1-4.6-3.9-4.6-6.8.9-5,3.9-5M475.5,83.7c4.3,0,7.3-3,7.3-7.3s-2.8-6.4-6.4-6.4-7.1,2.9-7.1,7.1,2.6,6.7,6.1,6.5"/>
        <path d="M487.7,74.4c0-1.1,1.7-2.6,3.4-2.6s3.2,1.2,3.2,3.6v7.9h4.5v-.8h-1.1c-.5,0-.8-.2-.9-.5s-.1-.9-.1-1.6v-5.4c0-3-1.3-4.9-4.6-4.9s-1.6.2-2.3.7l-2.1,1.8h0v-2.4h-.2c-1,.3-2.7.9-4.4,1v.8h1c.6,0,.9,0,1,.3.1.2.2.8.2,1.7v6.3c0,.8,0,1.3-.1,1.6-.1.2-.4.4-.9.4h-1.3v.9h7v-.8h-1.3c-.5,0-.8-.2-.9-.5s-.1-.9-.1-1.6v-5.9h0Z"/>
        <path d="M505.4,90.2c-2.2,0-4.1-1.2-4.1-3.6s1.6-2.8,2.4-2.9c1.3,0,2.2,0,3,0,3.2,0,3.9.9,3.9,2.5s-2.1,4.1-5.2,4.1M508.2,75.1c0,1.7-1.2,3-2.9,3s-3.2-1.3-3.2-3.7.9-3.3,2.8-3.3,3.2,2,3.2,4.1M512.8,72.6l.7-1.1v-.3c0,0-4.1,0-4.1,0-.9-.8-2.2-1.2-3.4-1.2s-2.8.4-4.1,1.2c-1.2.8-2.1,2-2.1,3.8,0,2.9,2.4,3.7,3.3,3.7h0l-2.1,1.7c-.2.3-.4.8-.4,1.2,0,.8.6,1.3,1.8,1.7l-2.4,1.3c-.6.5-.8,1.4-.8,2.2,0,2.5,2.6,4.2,6,4.2s7.6-3.1,7.6-6-.8-3.5-3.3-3.5h-4.5c-.8,0-2.1,0-2.1-1.1s.9-1.2,1.3-1.6h.6c1.3,0,2.7-.5,3.9-1.3,1.1-.8,1.9-2,1.9-3.5s0-1.1-.3-1.6h2.6,0Z"/>
        <path d="M524.3,74.1l.3-.2,9.7,9.4h4v-.8h-.6c-.5,0-1-.6-1.7-1.2l-9.2-8.7,7.4-6.7c.7-.6,1.5-1,2.2-1.1h1.2v-.9h-4.7v.8c0,.2-.4.7-.8,1.1l-7.8,7.6v-6c0-1.1,0-1.8.2-2.1.2-.3.5-.4,1.2-.4h1.3v-.9h-8.2v.8h1.3c.7,0,1,.2,1.2.5s.2,1,.2,2.1v12.5c0,1.1,0,1.8-.2,2.1-.2.3-.5.4-1.2.4h-1.3v.9h8.2v-.8h-1.3c-.7,0-1-.2-1.2-.5s-.2-1-.2-2.1v-5.7h0Z"/>
        <path d="M544.5,71c2.7,0,4.4,3.1,4.4,6.7s-1.1,5.1-3.6,5.1-4.7-3.9-4.7-6.8.9-5,3.9-5M544.1,83.7c4.3,0,7.3-3,7.3-7.3s-2.8-6.4-6.3-6.4-7.1,2.9-7.1,7.1,2.6,6.7,6.1,6.5"/>
        <path d="M556.3,74.4c0-1.1,1.7-2.6,3.4-2.6s3.2,1.2,3.2,3.6v7.9h4.5v-.8h-1.2c-.5,0-.8-.2-.9-.5,0-.3,0-.9,0-1.6v-5.4c0-3-1.3-4.9-4.6-4.9s-1.7.2-2.3.7l-2.1,1.8h0v-2.4h-.2c-1,.3-2.7.9-4.4,1v.8h1c.6,0,.9,0,1,.3,0,.2.2.8.2,1.7v6.3c0,.8,0,1.3,0,1.6,0,.2-.4.4-.9.4h-1.3v.9h7v-.8h-1.3c-.5,0-.8-.2-.9-.5,0-.3,0-.9,0-1.6v-5.9h0Z"/>
        <path d="M574,90.2c-2.2,0-4.1-1.2-4.1-3.6s1.6-2.8,2.3-2.9c1.2,0,2.2,0,3,0,3.2,0,3.9.9,3.9,2.5s-2.1,4.1-5.2,4.1M576.8,75.1c0,1.7-1.2,3-2.9,3s-3.2-1.3-3.2-3.7.9-3.3,2.8-3.3,3.2,2,3.2,4.1M581.4,72.6l.7-1.1v-.3c0,0-4.1,0-4.1,0-.9-.8-2.2-1.2-3.4-1.2s-2.8.4-4,1.2c-1.3.8-2.1,2-2.1,3.8,0,2.9,2.4,3.7,3.3,3.7h0l-2.2,1.7c-.2.3-.4.8-.4,1.2,0,.8.6,1.3,1.8,1.7l-2.4,1.3c-.6.5-.8,1.4-.8,2.2,0,2.5,2.6,4.2,6,4.2s7.6-3.1,7.6-6-.8-3.5-3.3-3.5h-4.5c-.8,0-2.1,0-2.1-1.1s.9-1.2,1.3-1.6h.6c1.3,0,2.7-.5,3.9-1.3,1.1-.8,1.9-2,1.9-3.5s0-1.1-.3-1.6h2.6,0Z"/>
        <path d="M583.6,87.1c.7-1.2,1.2-2.1,1.5-2.7s.5-1.3.7-1.9c0-.3.2-1,.3-2l1.5-.4c.2,0,.6-.2,1.3-.4l.4.4c-1.1,2.6-2.5,4.9-4.1,6.8l-1.2.5-.3-.3h-.1Z"/>
        <g>
          <path d="M610.6,80.3c0,.8,0,1.3,0,1.6,0,.2-.4.4-.9.4h-1.3v.9h7v-.8h-1.3c-.5,0-.8-.2-.9-.5,0-.3-.2-.9-.2-1.6v-5.9c0-1.1,1.7-2.6,3.4-2.6s3.2,1.2,3.2,3.6v7.9h4.5v-.8h-1.1c-.5,0-.8-.2-.9-.5,0-.3,0-.9,0-1.6v-5.4c0-3-1.3-4.9-4.6-4.9s-1.7.2-2.3.7l-2.1,1.8h0v-9.5l-.2-.2c-1.4.6-2.9.8-4.4,1v.8h1.6c.6,0,.7.5.7,1.2v14.5h0Z"/>
          <path d="M630.3,70.1c-1,0-1.8.3-2.7.8-.6.3-1.2.7-1.7,1.1-1.3,1-2,2.6-2,5.3s2.2,6.5,6.5,6.5,4.3-1.2,4.5-1.6l.5-.9-.4-.3c-1.1.6-2.1,1.3-3.5,1.3-3.4,0-5.1-2.2-5.1-5.5h4.1c1.7,0,3.4,0,5.1-.4v-1.2c0-3.2-2.3-5.1-5.3-5.1M630.1,71c2,0,3,2.1,3,4.7-2,0-4.4.2-6.7,0,0-3,1.5-4.6,3.7-4.6"/>
          <path d="M640.2,74.4c0-1.1,1.7-2.6,3.4-2.6s3.2,1.2,3.2,3.6v7.9h4.5v-.8h-1.1c-.5,0-.8-.2-.9-.5,0-.3,0-.9,0-1.6v-5.4c0-3-1.3-4.9-4.6-4.9s-1.7.2-2.3.7l-2.1,1.8h0v-2.4h-.3c-1,.3-2.7.9-4.3,1v.8h1c.6,0,.9,0,1,.3,0,.2.2.8.2,1.7v6.3c0,.8,0,1.3,0,1.6,0,.2-.4.4-.9.4h-1.2v.9h7v-.8h-1.3c-.5,0-.8-.2-.9-.5,0-.3,0-.9,0-1.6v-5.9h-.1Z"/>
          <path d="M667,80.3c0,.8,0,1.3,0,1.6,0,.2-.4.4-.9.4h-1.3v.9h7v-.8h-1.3c-.5,0-.8-.2-.9-.5,0-.3-.2-.9-.2-1.6v-5.9c0-1.1,1.7-2.6,3.4-2.6s3.2,1.2,3.2,3.6v7.9h4.5v-.8h-1.1c-.5,0-.8-.2-.9-.5,0-.3,0-.9,0-1.6v-5.4c0-3-1.3-4.9-4.6-4.9s-1.7.2-2.3.7l-2.1,1.8h0v-9.5l-.2-.2c-1.4.6-2.9.8-4.4,1v.8h1.6c.6,0,.7.5.7,1.2v14.5h0Z"/>
          <path d="M686.8,70.1c-1,0-1.8.3-2.7.8-.6.3-1.2.7-1.7,1.1-1.3,1-2,2.6-2,5.3s2.2,6.5,6.5,6.5,4.3-1.2,4.5-1.6l.5-.9-.4-.3c-1.1.6-2.1,1.3-3.5,1.3-3.4,0-5.1-2.2-5.1-5.5h4.1c1.7,0,3.4,0,5.1-.4v-1.2c0-3.2-2.3-5.1-5.3-5.1M686.6,71c2,0,3,2.1,3,4.7-2,0-4.4.2-6.7,0,0-3,1.5-4.6,3.7-4.6"/>
          <path d="M696.6,74.4c0-1.1,1.7-2.6,3.4-2.6s3.2,1.2,3.2,3.6v7.9h4.5v-.8h-1.1c-.5,0-.8-.2-.9-.5,0-.3,0-.9,0-1.6v-5.4c0-3-1.3-4.9-4.6-4.9s-1.6.2-2.3.7l-2.1,1.8h0v-2.4h-.3c-1,.3-2.7.9-4.3,1v.8h1c.6,0,.9,0,1,.3,0,.2.2.8.2,1.7v6.3c0,.8,0,1.3,0,1.6,0,.2-.4.4-.9.4h-1.2v.9h7v-.8h-1.3c-.5,0-.8-.2-.9-.5,0-.3,0-.9,0-1.6v-5.9h-.1Z"/>
          <path d="M595.7,82.7c.2-.9.2-2.3.3-4.3h.9c0,1.3,0,2.1.2,2.4,0,.2.4.5.8.8.4.3.9.5,1.6.7.7.2,1.3.3,2,.3s1.8-.2,2.6-.6,1.3-1,1.7-1.7.5-1.4.5-2.2,0-1.1-.3-1.6c-.2-.4-.5-.8-.8-1.1s-.8-.5-1.4-.6c-.3,0-1-.2-2-.3-1,0-1.9-.3-2.6-.4-1-.3-1.7-.6-2.1-1-.5-.4-.8-.9-1.1-1.6s-.4-1.3-.4-2.1.3-2.1.8-3.1c.6-.9,1.4-1.7,2.5-2.2s2.3-.8,3.6-.8,1.6,0,2.5.3c.9.2,1.8.5,2.6.9,0,.6-.2,1.1-.3,1.6,0,.5,0,1.2,0,2.2h-.9c0-1.4,0-2.2,0-2.3-.2-.3-.5-.6-.9-.9-.9-.5-1.9-.8-3-.8s-2.4.4-3.2,1.2-1.2,1.9-1.2,3.1,0,1.4.4,1.8c.3.4.8.8,1.5,1,.5.2,1.3.3,2.5.5,1.1.2,2.2.3,3.1.5.9.3,1.5.6,1.9.9s.8.8,1,1.4c.3.6.4,1.2.4,2,0,1.8-.8,3.4-2.3,4.8s-3.5,2-5.9,2-3.5-.4-4.9-1.1h0v.3Z"/>
          <path d="M652,83.3l-.2-.6c.9-1,1.7-1.8,2.2-2.4,1.2-1.5,2.8-3.5,4.9-6,.3-.3.9-1.2,2-2.7h-5.3c-.6,0-1,0-1.1,0,0,0,0,0-.2,0,0,0,0,.3-.2.7l-.3,1.6h-.8c0-1.6,0-2.5,0-2.6v-.9h10.9v.7c-.6.7-1.7,1.9-3.2,3.9-3,3.7-4.8,6.1-5.5,7.1h4.2c1.4,0,2.4,0,3-.2.2,0,.3,0,.4,0v-.2c.2-.6.4-1.4.5-2.3h.8c0,1.1-.2,1.7-.2,1.9s0,.8-.2,1.9c-.5,0-1.2.2-2,.2h-10.1l.3-.2Z"/>
        </g>
      </g>
      <path d="M163.4,44.9l-.4-.4c-.4-.5-.9-.7-1.4-.7s-1.6.2-3.2.5c-1.3.3-2.3.5-2.9.5v-3.3c1.2,0,2.6,0,4-.4,2.5-.4,2.5-.5,2.6-.6v-.4c.1-.3,0-.6-.6-.9-.4-.2-.9-.3-1.4-.3s-1.2.2-2.1.5l-1.6.5s-.6.2-1,.2v-3.1c.8,0,1.6,0,2.4-.3,2.2-.5,3.8-.7,4.5-.7s.5,0,.7.2c.2,0,.3.3.3.5v2c.1,0,.3,3,.3,3,0,1.9-.1,2.7-.2,3.1M165.4,34.5c-1.1-.5-1.8-.7-2.3-.7s-1.9.7-1.9.7c-1.4.4-2.8.7-4,.9l-1.9.2-.7-.2-1.1-.2c-.7,0-.8.4-.8.6s.5,1.3.5,1.3c.1.4.3,1,.3,1.8v2.9c.1,1.1,0,1.9-.1,2.4l-.2,1.3c0,.8.1,1.5.5,2.2.4.9.6,1.2,1,1.2s.6-.3.8-2.9h.5l2.6-.3,2.3-.3c.3,0,.6,0,.8.3.2.2.4.6.6,1l.6,1.6.5,1.4h.7c0,0,.1,0,.1,0,1.5-1.3,2.3-3.4,2.3-6.4v-4.3c-.1-1.9.1-2.5.2-2.6.4-.5.5-.8.5-.9,0-.5-.5-.9-1.7-1.4M177.8,33.5c-.1-.2-.3-.2-.6-.2-3.4-.4-6.4-1.2-8.7-2.3-2.2-1.1-4.5-2.7-6.9-4.7,1.4-.2,3.1-.3,5.1-.3,3.1,0,3.8-.1,3.9-.2.5-.1.6-.5.6-.7,0-.5-.3-.9-.9-1.2-.5-.3-1.1-.4-1.8-.4s-1.5.2-3.2.6c0,0-3.5.7-4.6.9,0-.5.3-1.7.3-1.7l.2-.3h0l.2-.6c0-.5-.5-.9-1.5-1.3,2.3-.6,4.4-1,6.1-1.3.5,0,.5-.3.5-.4,0-.2-.1-.6-1.6-1.6-1-.7-1.8-1.1-2.3-1.1s-.3,0-.5.2c0,0-.2.6-.2.8-.9.8-3.7,2.2-8.3,4h-.3c0,.1.4.7.4.7h.1c1.4,0,2.9-.3,4.4-.8h0l.4,1.8c.1.6.2,1.2.2,1.8h0c-.4.1-5,.8-5,.8-2.3.4-4.3.7-5.9.8h-.6l.4.5c.9.9,1.7,1.3,2.4,1.3s.6,0,2.4-.4c0,0,2.4-.5,3.6-.8-2.9,4.1-6.9,7.4-12.2,9.7h-.2v.4s0,.3.5.3c.9,0,2-.3,3.4-.8,1.4-.6,2.6-1.2,3.7-1.9s2.1-1.5,3-2.4,1.8-1.8,2.6-2.8c0,0,1.2-1.6,1.9-2.4,0,1.1-.2,2.1-.4,2.9-.3,1.1-.4,1.8-.4,2.1,0,.6.2,1.3.8,2.1h.1c0,0,.4.3.4.3.4,0,.6-.4.9-1.5.3-.9.4-1.9.4-3.1,0,0,0-2-.1-3.1.8.9,2.1,2.3,4.3,4.4,2.7,2.5,4.5,3.8,5.5,3.8s3.4-.4,7.2-1.1h.2v-.7"/>
      <path d="M198.5,32.2c.5,0,1.2-.2,1.2-1.5s-.3-1.5-.9-2.1c-.6-.6-1.8-.9-3.9-1.1h-.5l.2.4c1.4,2.9,2.6,4.3,3.8,4.3M201.9,25.2c.4,0,1.1-.2,1.1-1.3s-.4-1.7-1.3-2.2c-.8-.5-1.9-.8-3.1-.8h-1.3c0,.1.3.5.3.5,2.6,3.5,3.7,3.9,4.2,3.9M209.4,29v-3.4c.4,0,3.6-.7,4.2-.8-.1.6-.8,3.3-.8,3.6-.3,0-2.9.5-3.4.6M208,36.9c.5,0,1.2,0,2.1-.3l2.1-.3s.1,0,.1,0v2c-.1,0-.4.7-.4.7,0,0-.1.2-1,.4l-1.7.4s-.9,0-1.4.2v-3.2h.2ZM198.4,42.4s.2,0,.2-.2h0l-.3.2h.1ZM227.7,37.9c-3.8-1.2-6.5-2.2-8.1-3.2-1.5-.9-3.6-2.5-6.2-4.8,1.8-.3,3.6-.5,5.2-.5h3.4c.7-.2.8-.5.8-.7s-.2-.6-.8-1.1c-.5-.4-1.1-.7-1.8-.7-1.2,0-3.2.4-5.8,1.1.2-.7,1-3.3,1.1-3.5.3,0,1.1-.2,1.1-.2l2-.2c.7,0,1.7-.2,1.7-.9s-.3-1-1.7-1-1.2.1-2.3.4c.4-.8,1.7-3.8,1.7-3.8h0c-.1-.5-.7-.9-1.6-1.3-.9-.4-1.6-.6-2-.6h-.2c-.2.3-.3.5-.3.7l.3.9c.2.4.3.9.3,1.5s-.2,1.4-.4,3.1c-.3,0-4.1.8-4.6.9v-1.5l.2-2.1h-.1c-1-.8-2-1.1-3-1.1s-.7.4-.7.5,0,.1.6,1.1c.3.6.6,1.3.7,2.2,0,0,.2.9.3,1.4-.5,0-4.1.8-4.1.8l.4.4c.6.5,1.3.8,2,.8s1-.1,1.8-.3c0,.5.4,2.8.4,3.2-2.4.5-4.7.8-6.8,1h-.5l.3.4c.6.8,1.4,1.1,2.5,1.1s1.3-.1,2.1-.3c0,0,.7-.2,1.2-.3-1.4,3.9-4.2,7.5-8.7,10.7h-.1c.1-.3.3-.8.5-1.2l3.4-7.3h-.8l-2.4,3c-1,1.4-1.8,2.3-2.2,2.7-.4.3-.8.5-1.2.5-.6,0-.9.2-.9.6s.2,1.4.6,2.8c.5,1.5.9,2.2,1.5,2.2s.9-1.1,1-1.4c0-.4.2-1,.4-1.5l.5.3h.1c3-.9,5.5-2.8,7.4-5.6.2,1,.3,2,.3,3.3v3c-.1,1.1.3,2.2,1.1,3.2.9,1,2.6,1.5,5.3,1.5s3.3-.2,4.9-.5c1.7-.4,2.5-1,2.5-1.8s-.3-.7-.8-.9l-1.1-.3c-.3,0-.7,0-1.1.3-.3.2-1,.4-2,.6-1,.2-2,.3-3.1.3s-2.1,0-2.7-.3c-.5-.2-.8-.7-.9-1.5,0,0-.1-1.6-.2-2.2h.7c.4,0,1.4,0,3-.4,2.5-.4,2.7-.7,2.8-.8l.3-.6c0-.5-.4-.7-.8-.9.2-.4.6-1.4.6-1.4.1-.3.4-.6.7-.8.5-.3.7-.6.7-.8,0-.4-.4-.8-1.4-1.3-.9-.5-1.5-.8-1.9-.8s-1.6.7-1.6.7l-1.7.6c-.6.2-1.3.2-1.8.2h-.5c.4-.5,1.2-1.6,1.2-1.6,1.3-1.7,1.3-1.8,1.3-1.9,0-.2-.2-.5-1-1.1.8-.2,2.8-.5,3.1-.6.2.2,3.7,4.1,3.7,4.1,1.3,1.5,2.4,2.6,3.4,3.5s1.7,1.4,2.1,1.6l1.2.2c.4,0,1.4,0,3.1-.4,2.7-.4,2.8-.6,2.8-.9s0-.3-.4-.4"/>
      <path d="M255,27v6.4c-.4,0-5.3.5-5.8.5,0-2.4-.1-4.4-.4-6.1.5,0,5.7-.8,6.2-.9M264.6,27.2c0,.5-.1,1.4-.4,2.7-.3,1.3-.7,2.1-1.3,2.4-.6.3-2.5.6-5.5.9v-6.5c2.8-.4,4.8-.7,5.9-.7s.9.2,1,.3c.2.2.2.5.2.9M267.6,24.9c-1.2-.9-2.1-1.4-2.7-1.4s-.3,0-1.4.5c-.7.3-2.8.6-6.1,1.1.1-2.6.3-4.5.5-5.4l.2-.9c0-.5-.4-1-1.2-1.5-.7-.4-1.6-.7-2.7-.9h-.1c-.6.2-.7.6-.7.9v.3c.6.7.9,1.6,1.2,2.6s.4,2.7.4,5.2c-2.6.4-4.4.6-5.4.6l-2.4-.2-2.5-.3h0c-.1.1-.3.3-.3.6v.6c.7.5,1.1,1.1,1.4,1.9.3.8.6,2.4.9,4.9.3,2.8.8,4.1,1.8,4.1s.7-.6.8-2.2c.4,0,5.3-.5,5.8-.5,0,.5-.1,5.5-.1,5.5l-.2,5.7c0,.5.1,1.4.4,2.9.4,2.1.7,2.4,1,2.4h.3c.4-.5,1-1.6,1-6.4,0,0-.1-9-.1-10.3,3.5-.3,6-.4,7.5-.4s1.4,0,1.4-.6-.2-1.1-1.2-1.4c1.6-2.5,2.7-4,3.3-4.4,1-.7,1.1-1,1.1-1.2s-.1-.5-1.9-1.8"/>
      <path d="M320.1,44.7c-4.2-.4-7.6-1.2-10.1-2.4-2.4-1.1-4.7-2.7-6.6-4.7.4-.8.8-2,1.2-3.5l.9-3.1c.1-.4.3-.7.5-.9l.4-.7c0-.3-.3-.6-.9-1.1-.4-.3-.8-.5-1.1-.6,2.9-.5,6-1,9.2-1.3.7-.4,1-.8,1-1.1s-.4-.8-1.1-1.1c-.7-.3-1.4-.5-2.2-.5-1.2,0-2.5.3-3.7,1-4.3,1.9-9.8,2.9-16.3,3h-.5l.3.4c.7,1,1.7,1.5,3.1,1.5s4.4-.5,8.6-1.5c0,0-.1.1-.1.2s.1,1.3.1,1.3c0,1.3-.4,3.3-1.2,6-.5-.5-1.9-2.1-1.9-2.1-1-1.3-1.8-2.1-2.4-2.4-.6-.4-1.2-.5-1.7-.5s-1.6,0-1.6.8v.5h.2c2.2,1,4.4,2.9,6.5,5.7-2.2,2.9-6.4,4.8-12.6,5.7v.5c1,.3,1.9.5,2.8.5s3-.4,5.4-1.1c2.4-.7,4.4-2,6-3.8,1.9,2.1,3.7,3.9,5.4,5.3,1.8,1.5,3.1,2.2,4,2.2s2.1-.2,4.2-.7l4.3-.8v-.5h0v-.2ZM301,21.2c1.6,1.3,2.9,2,3.7,2s1.1-.3,1.1-1.9-.4-1.2-1.1-1.8c-.7-.5-1.4-.9-2.2-1-.7-.1-1.9-.2-3.7-.2h-.3v.3c0,.3.1.7,2.4,2.6"/>
      <path d="M361.8,43.9c-1.6-.4-3.1-1.1-4.6-2-1.4-1-2.8-2.2-4.1-3.8-1.3-1.5-2.6-3.3-3.8-5.4v-1.9c1.5-.3,3.5-.5,6.2-.8l4.9-.5c.8-.1.9-.6.9-.8,0-.4-.4-.9-1.3-1.3-.8-.4-1.7-.6-2.8-.6s-.2,0-2.6.9c-1.5.5-3.2.9-5.1,1.2,0-3.5.3-5.8.6-6.8.4-1.1.5-1.8.5-2.2s-.2-.9-.6-1.2c-.4-.3-.9-.5-1.7-.8-.8-.2-1.5-.4-2.3-.4s-.8.3-.8.7.1.4.4.6c1,1.2,1.5,3.4,1.5,6.5,0,0,0,3.6-.1,4-.4,0-9.5,1.3-9.5,1.3l.3.4c.7.9,1.8,1.3,3.1,1.3s2-.2,3.5-.5c0,0,1.8-.4,2.6-.6-.6,6.9-4.1,11.7-10.5,14.2v.5c2.2,0,4.5-.8,7.1-2.7,2.4-1.8,4.2-4.6,5.3-8.2,1.5,2.8,3.2,5.4,5.2,7.8,2.8,3.5,3.9,4,4.5,4,2,0,5-.4,8.8-1v-.5l-5.5-1.3h-.1Z"/>
      <path d="M410.3,37.8c-.7-.5-1.6-.7-2.6-.7s-1.8.2-3.2.5c-1.4.3-2.4.5-3,.5h-.6s-.1,0-.2,0c1.2-1.1,2.5-2,3.8-2.8.8-.3,1-.8,1-1.1s0,0,0-.2h0v-.2c-1.3-1.1-2.6-1.6-3.6-1.6l-2.8.9-2.9.7c-1,.2-2,.2-3,.2h-.6l.4.5c.8.9,1.8,1.3,2.9,1.3,0,0,5.2-1.6,5.5-1.7h.5s.1.2.1.4-.2.8-1.8,2.7c-.6-.4-1.2-.7-1.8-.7s-.7.4-.7.5.1.4.8.9c.3.2.4.4.5.5-5.6.7-9.7,1.2-12,1.3h-.3v.3c0,.2.1.5,1,1.2.7.5,1.3.7,1.8.7s1,0,4.5-.9c2.4-.5,4.2-.8,5.5-.9.2,1,.3,2,.3,3.1,0,2.8-.5,4.2-1.6,4.2s-1.7-.2-3.5-.6l-.2.5c2,1.3,3.2,2.4,3.7,3.5v.2c.1,0,.3,0,.3,0,2.3-1,3.5-3.3,3.5-7s-.1-2.4-.4-4c.5,0,4.3,0,4.3,0l5.2.2c.8,0,.9-.5.9-.7,0-.4-.4-.9-1.1-1.4M414.1,29.5c-.8-.9-1.5-1.3-2.2-1.3l-1.7.3c-.8.2-1.8.3-3,.3.1-.6,1-4.5,1-4.5.5-2,.7-2.8.9-3,.2-.4.4-.6.7-.8.4-.3.5-.5.5-.7s-.1-.5-1.5-1.3c-1.3-.8-1.6-.9-1.7-.9s-.2,0-1.3.5c-.7.3-1.6.6-2.9.8h-.6c0,.1.5.5.5.5.6.5,1.2.7,1.8.7h1c0-.1.9-.3.9-.3.1,0,.4,0,.4.8s-.1.9-.2,1.3c-1,0-2.2.1-3.9.4h-.5l.3.4c.4.5,1,.8,1.8.8h1.8q0-.1.2-.1c0,.4-.3,1.6-.4,1.9-.4,0-3.8.4-3.8.4v.3c.2.5.6,1,1.7,1h1.2c0-.1.4-.2.7-.2,0,.5-.3,2.1-.4,2.4-.4,0-10.7,1.2-11.2,1.3,0-.4-.2-1.8-.3-2.2.4,0,1.1-.2,1.1-.2l1.3-.3h.1c0-.1.1-.2.1-.2.2-.1.3-.3.3-.5v-.2h0c-.3-.3-.6-.5-1-.5s-.8.1-1.3.4c-.4.2-.7.2-.9.3,0-.4-.3-1.5-.3-1.9.3-.1,1.3-.4,1.3-.4.6-.2,1.5-.5,1.5-1.1s0-.8-1-.8-.8.1-1.4.4c0,0-.5.2-.8.3,0-.3-.1-.8-.1-.8v-1.1c.2-.1,2.9-1.8,2.9-1.8v-.2c0-.4-.4-.8-.9-1.1-.5-.3-1-.4-1.4-.4-.7,0-.8.4-.8.5,0,.8-.3,1.5-.9,2.2-1.6,0-2.2.2-2.2.7l.4.6c.9.9,1.9,3.7,2.7,8.5-.5,0-3.4.6-3.7.7-.5-.9-1.1-1.5-1.6-1.6h-.4v.3c0,1.4-.2,2.5-.7,3.2-.6.8-.8,1.5-.8,2,0,1.3.6,1.5,1,1.5s1.1-.4,1.8-1.3c.6-.8.9-1.7.9-2.7,1.3-.3,4.6-.8,10.1-1.4,5.7-.6,9.1-1,10.2-1h1.5c0,.1-.1.6-1.7,2.1l.3.5,2.8-.8h1.2c.9,0,2-.2,2-.9s0-.5-1.2-1.6M395.3,29.8h.8c.9-.3,2.1-1.1,3.5-2.5.3.3,1.4,1.5,1.4,1.5l.8.2v-.8c.1-.6-.4-1.3-1.2-2.1.1-.2.4-.5.4-.5.3-.4.5-.8.5-1.2s0-.1,0-.2h0c0-.1-.1-.2-.1-.2-.5-.3-.8-.5-1.1-.5s-.7.2-.8,1c0,.4-.1.6-.2.7-.6-.4-1.2-.6-1.7-.6h-1.2c0,.1.6.5.6.5.7.5,1.1.9,1.4,1.3-.2.3-1.1,1.3-1.1,1.3l-1.9,2.2h0ZM397.3,20.1c.4.3.7.6.9.8-.2.3-2.4,3-2.4,3l.8-.2c1.1-.3,2-.9,2.9-1.8.2.2.6.7.6.7.5.5.9.9,1.3,1h.2c.4-.3.5-.6.5-1,0-.6-.5-1.4-1.4-2.2.2-.2.7-.8.7-.8.5-.6.8-1.1.8-1.7s-.7-.9-2.2-1.1h-.4v.7c0,.6-.2,1.3-.7,2-.3-.1-1-.5-1-.5-.6-.3-1.2-.5-1.7-.5h-.5l.2.4c.2.3.6.6,1.2,1"/>
      <g>
        <path d="M455,25.2c.4,0,1.1-.2,1.1-1.3s-.4-1.7-1.3-2.2c-.8-.5-1.9-.8-3.1-.8h-1.3c0,.1.3.5.3.5,2.6,3.5,3.7,3.9,4.2,3.9h0Z"/>
        <path d="M451.6,32.2c.5,0,1.2-.2,1.2-1.5s-.3-1.5-.9-2.1-1.8-.9-3.9-1.1h-.5l.2.4c1.4,2.9,2.6,4.3,3.8,4.3h0Z"/>
        <path d="M450.6,43.8c0,.4-.2,1.4-1,1.4s-1-.7-1.5-2.2c-.4-1.3-.6-2.3-.6-2.8s.3-.5,1-.6c.4,0,.8-.2,1.2-.5.4-.4,1.2-1.3,2.2-2.7l2.4-3h.8l-3.4,7.3c0,.2-.1.4-.2.5,0,0,0,.2-.1.3,0,0-.6,1.6-.7,2.2h0Z"/>
        <g>
          <path d="M480.5,43.5c-2.8-1.1-4.8-2.1-6.1-2.9-1.2-.8-3.2-2.6-5.7-5.1s-1-.9-1.4-1.2c1.4,0,2.6-.2,3.6-.2s2.7,0,3.9.2c1.2,0,1.9-.2,1.9-.7s-.4-.9-1.4-1.3c-1.4-.5-1.8-.5-1.9-.5s-.2,0-.9.2c-1.1.3-2.7.5-4.7.7h-1.1c0-.5.1-1,.2-1.5s.2-.8.2-1-.2-.5-.5-.7c-.6-.4-1.2-.5-1.8-.5s-.7.2-.7.7,0,.4.2.7c.1.4.2,1.2.2,2.6-.9,0-1.8.2-2.7.3-1,.2-2.5.3-4.6.4-.6,0-.9.2-.9.5s.4.6,1.3,1c.8.3,1.4.5,1.8.5s.5,0,1-.2c1.1-.3,2.2-.5,3.2-.7-.1.3-.3.5-.4.8-1.2,1.8-2.4,3.2-3.5,4.3-1,1.1-2.8,2.5-5.1,4.1-.4.2-.5.4-.5.5s.1.3.3.3h0c1.5-.4,2.9-.9,4-1.6,1.3-.7,2.4-1.6,3.5-2.7,1-1,1.9-2.1,2.8-3.4v4c0,2.2,0,3.7-.2,4.3,0,.5,0,.7-.1.9,0,.4.1,1,.5,1.6.4.7.7,1,1,1s.6-.3.9-.9c.2-.4.3-1,.3-1.6v-11c.2.2.4.4.6.6.7.8,1.5,1.7,2.3,2.7,2.7,3.4,4.4,5.3,5,5.8.5.3,1.1.5,1.6.5.8,0,2.3-.2,4.3-.7s.6-.3.6-.6-.2-.3-.6-.4h0l-.4.2Z"/>
          <path d="M457.4,27c.3,0,.5-.1.8-.4.4-.4.8-1.2,1.2-2.3.3-.6.4-1.2.5-1.7.3,0,.6.1,1,.1h.7c4.3-1,7.7-1.6,10.1-1.7.6,0,.6.2.6.3,0,.2-.2,1-1,3.3h0c0,.2,0,.3.3.3h0c1.6-.7,3-1.2,4.1-1.5.8-.1,1.3-.5,1.3-1.1s-.5-1.1-1.6-2c-1-.8-1.6-1.2-2-1.2s-.3,0-1.1.3c-4.6,1-8.7,1.5-12.1,1.7h-.3c0-.2-.1-.4-.2-.6-.2-.6-.5-.9-.7-.9s-.4.2-.5.6c-.7,2.3-1.3,3.8-1.8,4.5-.2.3-.3.7-.3,1.1s0,.6.2.8c.2.3.5.5.8.5h0Z"/>
          <path d="M459.9,28.3c-.6.8-1.5,1.5-2.4,2.3h0c0,.2,0,.3.2.3s.6-.1,1.1-.3c1.1-.4,2-1.1,2.9-2,.7-.7,1.4-1.6,1.9-2.7.1-.2.3-.4.6-.8h0v-.3c0-.4-.3-.8-.8-1-.6-.4-1.1-.5-1.5-.5s-.4.1-.4.4v.7c.1.5,0,1-.3,1.6-.4.9-.9,1.7-1.4,2.4h0Z"/>
          <path d="M469.6,29.5c.9.2,2,.4,3,.4s1.6-.1,2.2-.4c.4-.2.6-.4.6-.7s-.1-.6-.3-.8h0c-.5-.3-.7-.3-.8-.3-.3,0-.8,0-1.4.2h-1c-1.9,0-2.8-.5-2.8-1.7s0-.7.2-1.5c.1-.6.3-.8.4-.9h0v-.2h0c0-.5-.3-.8-.9-1-.5-.2-1-.4-1.3-.4-.5,0-.6.3-.6.4v3.8c0,1.5.8,2.5,2.4,3h.3Z"/>
        </g>
      </g>
      <g>
        <path d="M523.8,33.2v-6M523.9,25.6c0-2.6.3-4.5.5-5.4l.2-.9c0-.5-.4-1-1.2-1.5-.7-.4-1.7-.7-2.7-.9h0c-.6.2-.7.6-.7.9v.3c.6.7.9,1.6,1.2,2.6s.4,2.7.4,5.2v14.5l-.2,5.3c0,.5.2,1.4.4,2.9.4,2.1.7,2.4,1,2.4h.3c.4-.5,1-1.6,1-6.4,0,0,0-8.6,0-9.9v-9.2h0-.1Z"/>
        <path d="M516.2,22.8c-.7-.2-1.2-.4-1.7-.4s-.5.2-.5.5h0c0,.1,0,.3.3.9.2.6.3,1.8.3,3.6,0,3.8,0,6.7-.2,8.6-.2,1.5-.3,2.8-.3,3.9s0,.8.3,1.3c.3.7.6,1,.9,1s.7-.2,1-.7.4-1.1.4-1.9v-10.7c0-1.2,0-2.3.2-3.4.2-.8.2-1.4.2-1.7s-.4-.8-1.1-1.1h.2Z"/>
        <path d="M506.9,35.7c0-.2-.1-.4-.4-.4s-.4,0-1.5.5c-1.1.4-2.2.8-3.2,1.2v-6h.3c1.7-.4,2.8-.7,3.3-.9.5-.2.7-.4.7-.7s-.2-.5-.7-.7c-.6-.3-1.1-.4-1.5-.4s-.3,0-.5.2c-.4.2-1,.4-1.5.5v-3c.3-2.6.4-3.4.5-3.5.4-.6.4-.7.4-.7,0-.5-.4-1-1.1-1.4-.9-.5-1.8-.7-2.4-.7s-.8.3-.8.9,0,.1.3.6c.2.3.4.8.4,1.3.2,1.1.3,2.2.3,3.2v3.9c-1.2.3-2.5.6-3.7.7-.7,0-1,.2-1,.5s.2.4.6.7c.4.2,1,.3,1.9.3s1.3,0,2.4-.3l.2,6.3c-1.9.6-3.4,1.1-4.6,1.5s-1.2.3-1.8.4c-.1,0-.4,0-.4.3s.3.8,1,1.4c.8.6,1.5.9,2.1.9s.4,0,.7-.3c1.8-1.1,3.3-1.9,4.6-2.6,2.4-1.3,4.2-2.3,5.3-3,.3-.2.4-.3.4-.5h0l-.3-.2Z"/>
        <path d="M509.9,23c-.8-.5-1.5-.7-2-.7s-.9.3-.9.6,0,.2.4.7c.3.5.5,1,.5,1.7,0,1.1.1,2.2.1,3.4v2.4c0,3.2-.4,5.9-1.1,8-.9,2.5-2.1,4.5-3.5,6-.4.2-.5.4-.5.5s0,.3.4.3h0c.6,0,1.5-.6,2.8-1.7,1.4-1.3,2.5-3.2,3.4-5.6.6-1.9.9-5.7,1-11.1,0-.8,0-1.6.2-2.2,0-.3.1-.6.1-.9s-.3-.8-.9-1.1h0v-.3Z"/>
      </g>
      <path d="M438.7,47c-2-1.7-3.5-3.6-4.5-5.9s-1.6-4.8-1.6-7.4.2-3,.5-4.3.8-2.5,1.4-3.5,1.3-2,2-3c.8-1,1.5-1.7,2.3-2.2l.5.7c-1.5,1.6-2.6,3.4-3.3,5.3-.7,2-1.1,4.3-1.1,6.9s.3,5.2,1,7.1,1.8,3.8,3.3,5.7l-.7.6h.2Z"/>
      <path d="M534.5,47l-.6-.7c1.5-1.6,2.5-3.4,3.3-5.3.7-2,1.1-4.3,1.1-6.9s-.3-5.2-1-7.1-1.8-3.8-3.3-5.7l.7-.6c2,1.6,3.5,3.6,4.5,5.9s1.6,4.8,1.6,7.4-.2,3-.5,4.3-.8,2.5-1.4,3.5-1.3,2-2,3c-.8,1-1.5,1.7-2.2,2.2h-.2Z"/>
    </g>
  </g>
</svg>