<?xml version="1.0" encoding="UTF-8"?>
<!DOCTYPE svg PUBLIC "-//W3C//DTD SVG 1.1//EN" "http://www.w3.org/Graphics/SVG/1.1/DTD/svg11.dtd">
<svg xmlns="http://www.w3.org/2000/svg" version="1.1" width="540px" height="540px" style="shape-rendering:geometricPrecision; text-rendering:geometricPrecision; image-rendering:optimizeQuality; fill-rule:evenodd; clip-rule:evenodd" xmlns:xlink="http://www.w3.org/1999/xlink">
<g><path style="opacity:1" fill="#e9f2a2" d="M -0.5,-0.5 C 179.5,-0.5 359.5,-0.5 539.5,-0.5C 539.5,0.5 539.5,1.5 539.5,2.5C 359.5,2.5 179.5,2.5 -0.5,2.5C -0.5,1.5 -0.5,0.5 -0.5,-0.5 Z"/></g>
<g><path style="opacity:1" fill="#dde797" d="M -0.5,2.5 C 179.5,2.5 359.5,2.5 539.5,2.5C 539.5,7.16667 539.5,11.8333 539.5,16.5C 533.966,15.2519 528.132,15.2519 522,16.5C 521.333,15.8333 520.667,15.1667 520,14.5C 517.195,16.0686 514.195,17.0686 511,17.5C 509.342,17.3248 508.009,16.6582 507,15.5C 506.196,16.8045 505.029,17.4712 503.5,17.5C 501.913,16.6376 500.246,15.9709 498.5,15.5C 496.127,16.3375 493.793,16.6708 491.5,16.5C 489.684,13.9357 487.851,13.9357 486,16.5C 484.984,15.3659 484.317,15.6992 484,17.5C 480.869,16.7939 477.702,16.1272 474.5,15.5C 472.941,16.0736 471.441,16.7402 470,17.5C 465.876,17.417 461.709,17.417 457.5,17.5C 453.529,16.8028 449.529,16.3028 445.5,16C 444.285,13.9045 443.451,14.0712 443,16.5C 441.333,13.8333 439.667,13.8333 438,16.5C 435.534,15.8903 433.034,16.2236 430.5,17.5C 427.401,17.2838 424.234,17.2838 421,17.5C 418.539,16.7819 416.039,16.1153 413.5,15.5C 412.808,16.0253 412.308,16.6919 412,17.5C 394.834,16.2328 377.001,16.2328 358.5,17.5C 353.437,14.9955 348.437,15.3288 343.5,18.5C 340.812,17.9951 338.645,16.6618 337,14.5C 334.984,16.7506 332.651,17.084 330,15.5C 328.739,15.7591 327.739,16.4258 327,17.5C 324.199,16.2054 321.366,16.2054 318.5,17.5C 317.167,16.8333 315.833,16.1667 314.5,15.5C 309.785,16.1806 304.952,16.1806 300,15.5C 299.311,16.3567 298.478,17.0233 297.5,17.5C 290.915,16.9611 284.415,16.2944 278,15.5C 273.016,16.5868 268.182,17.2534 263.5,17.5C 260.355,17.1806 257.522,16.1806 255,14.5C 254.612,15.428 253.945,16.0946 253,16.5C 249.857,16.3568 246.69,16.3568 243.5,16.5C 242.051,14.7506 240.718,14.5839 239.5,16C 237.231,16.7581 235.064,16.5914 233,15.5C 230.802,17.3751 228.969,17.3751 227.5,15.5C 225.4,16.2387 223.067,16.2387 220.5,15.5C 219.059,16.304 217.559,16.9706 216,17.5C 213.526,17.1122 211.193,17.1122 209,17.5C 207.128,16.9318 205.295,16.2651 203.5,15.5C 203.511,16.4415 203.011,17.1081 202,17.5C 197.01,16.8296 192.177,16.8296 187.5,17.5C 185.362,16.7569 183.196,16.0903 181,15.5C 177.714,17.3959 174.214,17.8959 170.5,17C 169.638,14.2656 168.805,14.0989 168,16.5C 165.729,14.5663 163.729,14.5663 162,16.5C 158.557,15.6326 155.224,15.2992 152,15.5C 149.583,16.3521 147.083,17.0188 144.5,17.5C 142.317,16.2679 140.151,16.2679 138,17.5C 136.739,17.2409 135.739,16.5742 135,15.5C 134.692,16.3081 134.192,16.9747 133.5,17.5C 131.298,16.2203 129.132,16.2203 127,17.5C 126,16.8333 125,16.1667 124,15.5C 122.667,16.8333 121.333,16.8333 120,15.5C 119.196,16.8045 118.029,17.4712 116.5,17.5C 109.918,17.4717 103.085,17.4717 96,17.5C 93.3914,17.6251 91.0581,16.9584 89,15.5C 87,16.1667 85,16.8333 83,17.5C 71.2499,16.9165 59.7499,16.9165 48.5,17.5C 47.5224,17.0233 46.6891,16.3567 46,15.5C 43.7174,16.7192 41.384,16.7192 39,15.5C 38.3333,16.1667 37.6667,16.8333 37,17.5C 29.9573,16.5832 23.124,16.5832 16.5,17.5C 12.5202,15.0861 8.68683,15.4195 5,18.5C 3.22578,17.035 1.39245,15.7017 -0.5,14.5C -0.5,10.5 -0.5,6.5 -0.5,2.5 Z"/></g>
<g><path style="opacity:1" fill="#dce897" d="M -0.5,14.5 C 1.39245,15.7017 3.22578,17.035 5,18.5C 8.68683,15.4195 12.5202,15.0861 16.5,17.5C 23.124,16.5832 29.9573,16.5832 37,17.5C 37.6667,16.8333 38.3333,16.1667 39,15.5C 41.384,16.7192 43.7174,16.7192 46,15.5C 46.6891,16.3567 47.5224,17.0233 48.5,17.5C 59.7499,16.9165 71.2499,16.9165 83,17.5C 85,16.8333 87,16.1667 89,15.5C 91.0581,16.9584 93.3914,17.6251 96,17.5C 103.085,17.4717 109.918,17.4717 116.5,17.5C 118.029,17.4712 119.196,16.8045 120,15.5C 121.333,16.8333 122.667,16.8333 124,15.5C 125,16.1667 126,16.8333 127,17.5C 129.132,16.2203 131.298,16.2203 133.5,17.5C 134.192,16.9747 134.692,16.3081 135,15.5C 135.739,16.5742 136.739,17.2409 138,17.5C 140.151,16.2679 142.317,16.2679 144.5,17.5C 147.083,17.0188 149.583,16.3521 152,15.5C 155.224,15.2992 158.557,15.6326 162,16.5C 163.729,14.5663 165.729,14.5663 168,16.5C 168.805,14.0989 169.638,14.2656 170.5,17C 174.214,17.8959 177.714,17.3959 181,15.5C 183.196,16.0903 185.362,16.7569 187.5,17.5C 192.177,16.8296 197.01,16.8296 202,17.5C 203.011,17.1081 203.511,16.4415 203.5,15.5C 205.295,16.2651 207.128,16.9318 209,17.5C 211.193,17.1122 213.526,17.1122 216,17.5C 217.559,16.9706 219.059,16.304 220.5,15.5C 223.067,16.2387 225.4,16.2387 227.5,15.5C 228.969,17.3751 230.802,17.3751 233,15.5C 235.064,16.5914 237.231,16.7581 239.5,16C 240.718,14.5839 242.051,14.7506 243.5,16.5C 246.69,16.3568 249.857,16.3568 253,16.5C 253.945,16.0946 254.612,15.428 255,14.5C 257.522,16.1806 260.355,17.1806 263.5,17.5C 268.182,17.2534 273.016,16.5868 278,15.5C 284.415,16.2944 290.915,16.9611 297.5,17.5C 298.478,17.0233 299.311,16.3567 300,15.5C 304.952,16.1806 309.785,16.1806 314.5,15.5C 315.833,16.1667 317.167,16.8333 318.5,17.5C 321.366,16.2054 324.199,16.2054 327,17.5C 327.739,16.4258 328.739,15.7591 330,15.5C 332.651,17.084 334.984,16.7506 337,14.5C 338.645,16.6618 340.812,17.9951 343.5,18.5C 348.437,15.3288 353.437,14.9955 358.5,17.5C 377.001,16.2328 394.834,16.2328 412,17.5C 412.308,16.6919 412.808,16.0253 413.5,15.5C 416.039,16.1153 418.539,16.7819 421,17.5C 424.234,17.2838 427.401,17.2838 430.5,17.5C 433.034,16.2236 435.534,15.8903 438,16.5C 439.667,13.8333 441.333,13.8333 443,16.5C 443.451,14.0712 444.285,13.9045 445.5,16C 449.529,16.3028 453.529,16.8028 457.5,17.5C 461.709,17.417 465.876,17.417 470,17.5C 471.441,16.7402 472.941,16.0736 474.5,15.5C 477.702,16.1272 480.869,16.7939 484,17.5C 484.317,15.6992 484.984,15.3659 486,16.5C 487.851,13.9357 489.684,13.9357 491.5,16.5C 493.793,16.6708 496.127,16.3375 498.5,15.5C 500.246,15.9709 501.913,16.6376 503.5,17.5C 505.029,17.4712 506.196,16.8045 507,15.5C 508.009,16.6582 509.342,17.3248 511,17.5C 514.195,17.0686 517.195,16.0686 520,14.5C 520.667,15.1667 521.333,15.8333 522,16.5C 528.132,15.2519 533.966,15.2519 539.5,16.5C 539.5,190.833 539.5,365.167 539.5,539.5C 359.5,539.5 179.5,539.5 -0.5,539.5C -0.5,364.5 -0.5,189.5 -0.5,14.5 Z"/></g>
<g><path style="opacity:1" fill="#dee697" d="M 315.5,135.5 C 302.241,136.42 289.907,140.254 278.5,147C 261.014,151.715 244.347,158.382 228.5,167C 222.39,171.435 216.39,175.935 210.5,180.5C 207.454,181.885 204.454,181.719 201.5,180C 195.144,172.979 188.81,165.979 182.5,159C 173.143,139.771 166.476,119.605 162.5,98.5C 163.105,92.7672 161.938,87.4339 159,82.5C 157.693,80.8082 156.193,79.4749 154.5,78.5C 155.37,76.9681 155.036,75.4681 153.5,74C 154.167,73.3333 154.833,73.3333 155.5,74C 157.925,75.6967 159.258,77.6967 159.5,80C 162.933,81.1337 165.433,83.3004 167,86.5C 167.333,86.1667 167.667,85.8333 168,85.5C 170.638,92.9679 170.472,100.468 167.5,108C 168.249,109.734 168.749,111.567 169,113.5C 170.154,115.957 171.488,115.957 173,113.5C 174,114.167 175,114.833 176,115.5C 178.272,122.712 181.105,129.712 184.5,136.5C 183.266,138.398 183.599,140.065 185.5,141.5C 186.425,140.359 187.259,140.359 188,141.5C 193.866,149.585 197.699,158.585 199.5,168.5C 202.263,168.744 204.429,170.077 206,172.5C 211.335,169.211 217.168,167.711 223.5,168C 223.167,167.667 222.833,167.333 222.5,167C 223.824,163.161 225.824,159.661 228.5,156.5C 245.674,148.946 263.341,142.446 281.5,137C 290.442,130.819 300.276,128.319 311,129.5C 313.543,130.207 315.709,131.54 317.5,133.5C 316.757,134.182 316.091,134.849 315.5,135.5 Z"/></g>
<g><path style="opacity:1" fill="#efe68a" d="M 154.5,82.5 C 155.496,82.4142 156.329,82.7476 157,83.5C 159.363,88.4337 161.196,93.4337 162.5,98.5C 166.476,119.605 173.143,139.771 182.5,159C 188.81,165.979 195.144,172.979 201.5,180C 204.454,181.719 207.454,181.885 210.5,180.5C 214.981,178.562 219.648,177.229 224.5,176.5C 221.991,177.921 219.657,179.588 217.5,181.5C 212.693,183.403 208.36,186.07 204.5,189.5C 187.864,172.503 175.198,152.836 166.5,130.5C 160.932,114.893 156.932,98.8932 154.5,82.5 Z"/></g>
<g><path style="opacity:1" fill="#fd6700" d="M 322.5,206.5 C 321.395,208.713 321.395,210.88 322.5,213C 333.183,221.181 344.517,228.348 356.5,234.5C 369.924,240.752 383.591,246.419 397.5,251.5C 397.561,253.592 398.561,255.092 400.5,256C 407.359,258.465 414.359,260.465 421.5,262C 424.126,263.456 425.793,265.623 426.5,268.5C 425.631,271.941 424.464,275.274 423,278.5C 418.666,282.163 413.833,284.996 408.5,287C 390.986,291.507 373.32,295.174 355.5,298C 352.06,299.614 349.06,301.78 346.5,304.5C 344.283,305.369 341.95,305.702 339.5,305.5C 339.5,306.5 339.5,307.5 339.5,308.5C 341.132,322.836 342.965,337.169 345,351.5C 347.753,356.008 350.753,360.341 354,364.5C 355.275,366.717 356.275,369.051 357,371.5C 358.257,373.746 360.09,375.079 362.5,375.5C 363.564,380.858 366.064,385.524 370,389.5C 371.055,395.455 369.555,400.621 365.5,405C 362.5,405.667 359.5,405.667 356.5,405C 348.352,402.729 340.352,400.062 332.5,397C 315.92,387.877 298.92,379.544 281.5,372C 277.432,368.116 273.099,364.45 268.5,361C 266.203,360.982 263.869,361.149 261.5,361.5C 259.883,360.962 258.216,360.629 256.5,360.5C 254.173,360.247 252.173,360.914 250.5,362.5C 238.009,379.149 225.009,395.316 211.5,411C 209.086,412.885 206.419,413.552 203.5,413C 200.469,410.441 198.302,407.274 197,403.5C 193.209,388.217 189.543,372.883 186,357.5C 185.333,348.5 185.333,339.5 186,330.5C 188.407,323.421 189.907,316.088 190.5,308.5C 190.333,306.167 190.167,303.833 190,301.5C 189.722,300.584 189.222,299.918 188.5,299.5C 185.287,299.19 182.287,299.523 179.5,300.5C 175.5,300.5 171.5,300.5 167.5,300.5C 162.407,298.854 157.073,297.52 151.5,296.5C 146.85,297.399 142.183,297.566 137.5,297C 132.723,295.225 129.723,291.892 128.5,287C 130.487,280.527 133.653,274.694 138,269.5C 140.288,265.336 142.121,261.003 143.5,256.5C 156.326,243.324 168.326,229.491 179.5,215C 183.043,213.392 186.043,211.058 188.5,208C 191.418,206.85 194.418,206.017 197.5,205.5C 209.47,221.652 221.303,237.985 233,254.5C 234.401,262.969 233.068,270.969 229,278.5C 223.053,304.167 217.219,329.834 211.5,355.5C 213.903,355.607 215.736,354.607 217,352.5C 218.637,349.283 219.97,345.95 221,342.5C 225.989,322.897 230.655,303.23 235,283.5C 236.096,275.876 236.762,268.209 237,260.5C 252.936,283.369 269.603,305.703 287,327.5C 299.688,342.521 313.355,356.521 328,369.5C 298.193,327.482 268.026,285.482 237.5,243.5C 237.833,243.167 238.167,242.833 238.5,242.5C 244.779,243.587 251.113,244.42 257.5,245C 268.536,247.189 279.536,249.522 290.5,252C 310.138,254.065 329.805,255.398 349.5,256C 310.407,247.731 271.074,240.397 231.5,234C 220.594,220.259 210.261,206.092 200.5,191.5C 202.066,192.061 203.399,191.394 204.5,189.5C 208.36,186.07 212.693,183.403 217.5,181.5C 219.857,181.663 222.19,181.497 224.5,181C 230.449,177.192 236.783,174.192 243.5,172C 244.5,171 245.5,170 246.5,169C 261.876,163.985 276.876,157.985 291.5,151C 297.779,150.352 303.779,148.685 309.5,146C 317.643,145.797 325.643,144.631 333.5,142.5C 341.061,143.763 343.561,148.096 341,155.5C 339.268,159.363 337.934,163.363 337,167.5C 335.287,168.878 333.953,170.545 333,172.5C 329.358,183.917 325.858,195.25 322.5,206.5 Z"/></g>
<g><path style="opacity:1" fill="#ec6706" d="M 166.5,130.5 C 175.198,152.836 187.864,172.503 204.5,189.5C 203.399,191.394 202.066,192.061 200.5,191.5C 189.786,178.788 179.453,165.788 169.5,152.5C 169.429,145.004 168.429,137.67 166.5,130.5 Z"/></g>
<g><path style="opacity:1" fill="#f46704" d="M 354.5,136.5 C 353.21,137.058 352.377,138.058 352,139.5C 342.823,162.225 332.99,184.559 322.5,206.5C 325.858,195.25 329.358,183.917 333,172.5C 333.953,170.545 335.287,168.878 337,167.5C 337.934,163.363 339.268,159.363 341,155.5C 343.561,148.096 341.061,143.763 333.5,142.5C 325.643,144.631 317.643,145.797 309.5,146C 303.779,148.685 297.779,150.352 291.5,151C 276.876,157.985 261.876,163.985 246.5,169C 245.5,170 244.5,171 243.5,172C 236.783,174.192 230.449,177.192 224.5,181C 222.19,181.497 219.857,181.663 217.5,181.5C 219.657,179.588 221.991,177.921 224.5,176.5C 264.425,154.303 307.092,140.303 352.5,134.5C 353.713,134.747 354.38,135.414 354.5,136.5 Z"/></g>
<g><path style="opacity:1" fill="#f46603" d="M 154.5,82.5 C 156.932,98.8932 160.932,114.893 166.5,130.5C 168.429,137.67 169.429,145.004 169.5,152.5C 161.816,145.739 160.649,147.072 166,156.5C 177.009,172.522 187.509,188.855 197.5,205.5C 194.418,206.017 191.418,206.85 188.5,208C 186.043,211.058 183.043,213.392 179.5,215C 168.326,229.491 156.326,243.324 143.5,256.5C 142.121,261.003 140.288,265.336 138,269.5C 133.653,274.694 130.487,280.527 128.5,287C 129.723,291.892 132.723,295.225 137.5,297C 142.183,297.566 146.85,297.399 151.5,296.5C 157.073,297.52 162.407,298.854 167.5,300.5C 149.606,302.783 131.606,304.45 113.5,305.5C 114.801,299.223 116.967,293.223 120,287.5C 136.98,255.183 159.813,227.683 188.5,205C 160.486,171.47 144.153,132.97 139.5,89.5C 144.02,85.2891 149.02,81.9558 154.5,79.5C 154.5,80.5 154.5,81.5 154.5,82.5 Z"/></g>
<g><path style="opacity:1" fill="#e9e892" d="M 154.5,78.5 C 156.193,79.4749 157.693,80.8082 159,82.5C 161.938,87.4339 163.105,92.7672 162.5,98.5C 161.196,93.4337 159.363,88.4337 157,83.5C 156.329,82.7476 155.496,82.4142 154.5,82.5C 154.5,81.5 154.5,80.5 154.5,79.5C 149.02,81.9558 144.02,85.2891 139.5,89.5C 144.153,132.97 160.486,171.47 188.5,205C 159.813,227.683 136.98,255.183 120,287.5C 116.967,293.223 114.801,299.223 113.5,305.5C 112.359,302.36 112.192,299.027 113,295.5C 114,291.5 115,287.5 116,283.5C 126.213,264.005 139.047,246.672 154.5,231.5C 155.089,228.724 156.422,226.39 158.5,224.5C 162.277,221.733 165.944,218.9 169.5,216C 170.293,214.915 170.96,213.748 171.5,212.5C 174.734,211.959 177.567,210.626 180,208.5C 180.808,206.421 180.641,204.421 179.5,202.5C 176.155,198.655 172.655,194.989 169,191.5C 167.129,186.49 165.129,181.49 163,176.5C 159.161,171.655 156.161,166.322 154,160.5C 152.333,159.5 151,158.167 150,156.5C 147.078,149.177 143.912,142.01 140.5,135C 140.833,134.667 141.167,134.333 141.5,134C 139.745,131.07 138.578,127.903 138,124.5C 136.337,113.89 135.17,103.223 134.5,92.5C 136.109,80.3753 142.776,75.7087 154.5,78.5 Z"/></g>
<g><path style="opacity:1" fill="#eee78f" d="M 354.5,136.5 C 355.298,141.658 354.465,146.658 352,151.5C 347.151,156.868 344.151,163.201 343,170.5C 336.78,181.589 332.28,193.256 329.5,205.5C 329.667,207.5 329.833,209.5 330,211.5C 337.674,219.586 346.508,226.086 356.5,231C 357.684,232.145 357.684,233.312 356.5,234.5C 344.517,228.348 333.183,221.181 322.5,213C 321.395,210.88 321.395,208.713 322.5,206.5C 332.99,184.559 342.823,162.225 352,139.5C 352.377,138.058 353.21,137.058 354.5,136.5 Z"/></g>
<g><path style="opacity:1" fill="#fc7b18" d="M 169.5,152.5 C 179.453,165.788 189.786,178.788 200.5,191.5C 210.261,206.092 220.594,220.259 231.5,234C 271.074,240.397 310.407,247.731 349.5,256C 329.805,255.398 310.138,254.065 290.5,252C 279.536,249.522 268.536,247.189 257.5,245C 251.113,244.42 244.779,243.587 238.5,242.5C 238.167,242.833 237.833,243.167 237.5,243.5C 268.026,285.482 298.193,327.482 328,369.5C 313.355,356.521 299.688,342.521 287,327.5C 269.603,305.703 252.936,283.369 237,260.5C 236.762,268.209 236.096,275.876 235,283.5C 230.655,303.23 225.989,322.897 221,342.5C 219.97,345.95 218.637,349.283 217,352.5C 215.736,354.607 213.903,355.607 211.5,355.5C 217.219,329.834 223.053,304.167 229,278.5C 233.068,270.969 234.401,262.969 233,254.5C 221.303,237.985 209.47,221.652 197.5,205.5C 187.509,188.855 177.009,172.522 166,156.5C 160.649,147.072 161.816,145.739 169.5,152.5 Z"/></g>
<g><path style="opacity:1" fill="#e7e795" d="M 113.5,305.5 C 131.606,304.45 149.606,302.783 167.5,300.5C 171.5,300.5 175.5,300.5 179.5,300.5C 181.5,300.5 183.5,300.5 185.5,300.5C 184.77,301.712 183.77,302.712 182.5,303.5C 183.095,305.44 183.428,307.44 183.5,309.5C 180.815,339.956 181.982,370.29 187,400.5C 189.147,407.506 192.314,413.84 196.5,419.5C 197.384,423.818 199.051,427.818 201.5,431.5C 220.24,408.1 238.573,384.434 256.5,360.5C 258.216,360.629 259.883,360.962 261.5,361.5C 281.291,376.243 302.624,388.743 325.5,399C 341.685,406.262 358.352,412.095 375.5,416.5C 381.939,418.865 388.606,420.865 395.5,422.5C 395.649,421.448 395.483,420.448 395,419.5C 391.601,416.271 388.435,412.938 385.5,409.5C 378.677,399.195 371.844,388.862 365,378.5C 361.882,372.599 359.049,366.599 356.5,360.5C 357.036,357.615 356.87,354.615 356,351.5C 350.38,340.139 346.88,328.139 345.5,315.5C 345.486,313.407 346.152,311.574 347.5,310C 367.378,307.685 386.712,303.019 405.5,296C 409.039,295.718 412.539,295.218 416,294.5C 425.911,289.464 435.411,283.797 444.5,277.5C 446.503,275.867 447.836,273.867 448.5,271.5C 450.138,270.343 451.804,269.176 453.5,268C 434.483,263.605 415.817,258.105 397.5,251.5C 383.591,246.419 369.924,240.752 356.5,234.5C 357.684,233.312 357.684,232.145 356.5,231C 346.508,226.086 337.674,219.586 330,211.5C 329.833,209.5 329.667,207.5 329.5,205.5C 332.28,193.256 336.78,181.589 343,170.5C 344.151,163.201 347.151,156.868 352,151.5C 354.465,146.658 355.298,141.658 354.5,136.5C 354.38,135.414 353.713,134.747 352.5,134.5C 307.092,140.303 264.425,154.303 224.5,176.5C 219.648,177.229 214.981,178.562 210.5,180.5C 216.39,175.935 222.39,171.435 228.5,167C 244.347,158.382 261.014,151.715 278.5,147C 289.907,140.254 302.241,136.42 315.5,135.5C 324.98,133.771 334.48,132.104 344,130.5C 356.942,130.072 361.276,135.739 357,147.5C 351.613,160.675 345.28,173.342 338,185.5C 335.025,191.759 332.858,198.259 331.5,205C 333.586,210.767 336.919,215.767 341.5,220C 351.151,224.491 360.485,229.491 369.5,235C 389.349,243.088 409.682,249.755 430.5,255C 438.564,258.449 446.397,262.282 454,266.5C 455.202,270.793 454.035,274.293 450.5,277C 430.967,291.41 409.3,301.41 385.5,307C 374.262,308.966 362.929,309.966 351.5,310C 350.069,310.465 348.903,311.299 348,312.5C 347.357,318.627 348.024,324.627 350,330.5C 355.102,343.041 359.935,355.708 364.5,368.5C 373.697,384.908 384.364,400.242 396.5,414.5C 399.099,420.185 397.432,424.352 391.5,427C 388.167,427.667 384.833,427.667 381.5,427C 363.084,421.36 344.918,415.193 327,408.5C 326.5,409 326,409.5 325.5,410C 328.482,411.335 328.982,413.168 327,415.5C 322.677,413.221 318.177,411.221 313.5,409.5C 312.808,408.975 312.308,408.308 312,407.5C 311.667,407.833 311.333,408.167 311,408.5C 310.493,407.004 310.993,405.837 312.5,405C 306.147,401.157 300.147,396.823 294.5,392C 284.415,387.457 274.748,382.123 265.5,376C 259.065,373.088 253.898,374.588 250,380.5C 237.756,396.656 225.756,412.989 214,429.5C 209.118,434.687 203.785,435.687 198,432.5C 195.72,428.553 193.053,424.887 190,421.5C 189.647,420.328 189.813,419.162 190.5,418C 187.568,410.973 185.068,403.806 183,396.5C 180.442,384.982 178.942,373.316 178.5,361.5C 179.617,353.283 179.617,345.116 178.5,337C 180.43,328.867 180.597,320.7 179,312.5C 175.306,309.766 171.139,308.099 166.5,307.5C 151.26,310.058 135.927,311.224 120.5,311C 117.728,310.474 115.062,309.641 112.5,308.5C 113.127,307.583 113.461,306.583 113.5,305.5 Z"/></g>
<g><path style="opacity:1" fill="#eee793" d="M 448.5,271.5 C 447.836,273.867 446.503,275.867 444.5,277.5C 435.411,283.797 425.911,289.464 416,294.5C 412.539,295.218 409.039,295.718 405.5,296C 386.712,303.019 367.378,307.685 347.5,310C 346.152,311.574 345.486,313.407 345.5,315.5C 346.88,328.139 350.38,340.139 356,351.5C 356.87,354.615 357.036,357.615 356.5,360.5C 348.422,343.933 342.755,326.6 339.5,308.5C 339.5,307.5 339.5,306.5 339.5,305.5C 341.95,305.702 344.283,305.369 346.5,304.5C 383.018,301.105 417.018,290.105 448.5,271.5 Z"/></g>
<g><path style="opacity:1" fill="#f46404" d="M 397.5,251.5 C 415.817,258.105 434.483,263.605 453.5,268C 451.804,269.176 450.138,270.343 448.5,271.5C 417.018,290.105 383.018,301.105 346.5,304.5C 349.06,301.78 352.06,299.614 355.5,298C 373.32,295.174 390.986,291.507 408.5,287C 413.833,284.996 418.666,282.163 423,278.5C 424.464,275.274 425.631,271.941 426.5,268.5C 425.793,265.623 424.126,263.456 421.5,262C 414.359,260.465 407.359,258.465 400.5,256C 398.561,255.092 397.561,253.592 397.5,251.5 Z"/></g>
<g><path style="opacity:1" fill="#f1a445" d="M 179.5,300.5 C 182.287,299.523 185.287,299.19 188.5,299.5C 188.672,300.492 188.338,301.158 187.5,301.5C 187.158,300.662 186.492,300.328 185.5,300.5C 183.5,300.5 181.5,300.5 179.5,300.5 Z"/></g>
<g><path style="opacity:1" fill="#f3e789" d="M 185.5,300.5 C 186.492,300.328 187.158,300.662 187.5,301.5C 180.402,341.564 183.402,380.897 196.5,419.5C 192.314,413.84 189.147,407.506 187,400.5C 181.982,370.29 180.815,339.956 183.5,309.5C 183.428,307.44 183.095,305.44 182.5,303.5C 183.77,302.712 184.77,301.712 185.5,300.5 Z"/></g>
<g><path style="opacity:1" fill="#f46503" d="M 188.5,299.5 C 189.222,299.918 189.722,300.584 190,301.5C 190.167,303.833 190.333,306.167 190.5,308.5C 189.907,316.088 188.407,323.421 186,330.5C 185.333,339.5 185.333,348.5 186,357.5C 189.543,372.883 193.209,388.217 197,403.5C 198.302,407.274 200.469,410.441 203.5,413C 206.419,413.552 209.086,412.885 211.5,411C 225.009,395.316 238.009,379.149 250.5,362.5C 252.173,360.914 254.173,360.247 256.5,360.5C 238.573,384.434 220.24,408.1 201.5,431.5C 199.051,427.818 197.384,423.818 196.5,419.5C 183.402,380.897 180.402,341.564 187.5,301.5C 188.338,301.158 188.672,300.492 188.5,299.5 Z"/></g>
<g><path style="opacity:1" fill="#f56603" d="M 339.5,308.5 C 342.755,326.6 348.422,343.933 356.5,360.5C 359.049,366.599 361.882,372.599 365,378.5C 371.844,388.862 378.677,399.195 385.5,409.5C 383.851,414.138 380.517,416.471 375.5,416.5C 358.352,412.095 341.685,406.262 325.5,399C 302.624,388.743 281.291,376.243 261.5,361.5C 263.869,361.149 266.203,360.982 268.5,361C 273.099,364.45 277.432,368.116 281.5,372C 298.92,379.544 315.92,387.877 332.5,397C 340.352,400.062 348.352,402.729 356.5,405C 359.5,405.667 362.5,405.667 365.5,405C 369.555,400.621 371.055,395.455 370,389.5C 366.064,385.524 363.564,380.858 362.5,375.5C 360.09,375.079 358.257,373.746 357,371.5C 356.275,369.051 355.275,366.717 354,364.5C 350.753,360.341 347.753,356.008 345,351.5C 342.965,337.169 341.132,322.836 339.5,308.5 Z"/></g>
<g><path style="opacity:1" fill="#e3690d" d="M 385.5,409.5 C 388.435,412.938 391.601,416.271 395,419.5C 395.483,420.448 395.649,421.448 395.5,422.5C 388.606,420.865 381.939,418.865 375.5,416.5C 380.517,416.471 383.851,414.138 385.5,409.5 Z"/></g>
</svg>
