<svg width="138" height="64" viewBox="0 0 138 64" fill="none" xmlns="http://www.w3.org/2000/svg">
<path d="M3.64706 49.551L2.01548 51.9372H0.287926L0 39.8157H1.1517C3.16718 45.3515 6.23839 50.5055 12.1889 50.5055C16.5077 50.5055 18.6192 47.833 18.6192 44.0152C18.6192 40.8656 16.9876 38.4795 13.9164 37.1432C11.2291 35.9979 9.3096 35.2343 6.62229 33.9936C3.07121 32.371 0.863777 29.4122 0.863777 24.9263C0.863777 19.3905 5.18266 15.3818 10.8452 15.3818C13.3406 15.3818 16.4118 16.4317 18.1393 17.8634L19.6749 15.5727H21.4025L21.6904 27.3124H20.5387C18.6192 21.3949 16.3158 16.909 9.98142 16.909C8.5418 16.909 5.08669 18.1497 5.08669 22.2539C5.08669 25.4035 6.43034 27.217 9.40557 28.935C11.805 30.3667 14.2043 30.9393 16.3158 31.9892C20.1548 33.8981 23.0341 35.9979 23.0341 41.3428C23.0341 47.6421 18.3313 52.128 11.9009 52.128C7.96594 52.128 5.08669 50.7918 3.64706 49.551Z" fill="#C72326"/>
<path d="M24.3777 39.6249C24.3777 33.2301 28.4086 27.3125 35.0309 27.3125C39.8297 27.3125 42.3251 30.1758 42.3251 33.3255C42.3251 35.0435 41.3653 36.1889 39.7337 36.1889C38.774 36.1889 36.9504 35.6162 36.9504 33.6118C36.9504 31.4166 37.5263 31.4166 37.5263 30.3667C37.2384 28.8396 36.5665 28.4578 34.935 28.4578C32.1517 28.4578 29.4644 31.2257 29.4644 39.0522C29.4644 45.3515 31.7678 49.6466 35.7028 49.6466C38.8699 49.6466 40.8854 48.024 42.3251 45.0652L43.3808 45.8288C41.6532 49.2648 38.2941 52.0327 34.5511 52.0327C27.8328 52.0327 24.3777 46.7832 24.3777 39.6249Z" fill="#C72326"/>
<path d="M46.2601 18.2451C46.2601 16.5271 47.6038 15 49.3314 15C51.2509 15 52.4985 16.4317 52.4985 18.0542C52.4985 19.8677 51.1549 21.3948 49.3314 21.3948C47.6038 21.3948 46.2601 19.9631 46.2601 18.2451ZM44.0527 50.41C44.9165 50.3145 45.5883 50.2191 46.1642 50.0282C47.0279 49.7419 47.4119 48.692 47.4119 47.7375V32.8482C47.3159 31.7983 46.932 30.8438 46.1642 30.2711C45.5883 29.8894 44.1487 29.3167 43.2849 29.3167V28.3623L51.7307 27.7896L52.0187 28.1714V47.5466C52.0187 48.5965 52.4985 49.551 53.2663 49.9328C54.0341 50.3145 54.8019 50.5054 55.3778 50.6009V51.6508H44.0527V50.41Z" fill="#C72326"/>
<path d="M69.2941 36.4752C69.2941 32.7528 68.5263 28.4578 65.2632 28.4578C62.4799 28.4578 60.4644 31.703 60.2725 36.5706L69.2941 36.4752ZM55.2817 39.5294C55.2817 33.3255 59.0248 27.3125 65.3591 27.3125C71.8855 27.3125 74.2848 31.9893 74.2848 37.2387V37.716H60.2725V38.2886C60.2725 44.9698 62.192 49.742 67.0867 49.742C70.5418 49.742 71.8855 48.3103 73.613 45.1607L74.5728 45.8288C72.9412 49.5511 69.774 52.1281 65.743 52.1281C58.5449 52.0327 55.2817 46.4014 55.2817 39.5294Z" fill="#C72326"/>
<path d="M74.4769 50.4101C75.3407 50.3147 76.0125 50.2192 76.5883 50.0283C77.4521 49.742 77.836 48.883 77.836 47.7377V32.8483C77.74 31.7984 77.3561 30.6531 76.5883 30.0804C76.1085 29.6986 75.0527 29.3168 74.189 29.2214V28.2669L82.1549 27.6943L82.5388 28.0761V31.6075C84.3623 29.6986 86.0899 27.3125 90.0249 27.3125C94.3438 27.3125 96.3592 30.5576 96.3592 35.5207V47.4513C96.3592 48.5967 96.7431 49.3602 97.5109 49.742C98.1828 50.0283 98.7586 50.2192 99.7184 50.3147V51.3646H88.3933V50.3147C89.1611 50.2192 90.0249 50.1238 90.6007 49.9329C91.4645 49.6466 91.8484 48.7876 91.8484 47.6422V35.4253C91.8484 31.8938 90.1209 29.8895 88.1054 29.8895C84.8422 29.8895 83.0187 32.0847 82.6348 33.2301V47.4513C82.6348 48.5967 83.0187 49.3602 83.7865 49.742C84.3623 50.1238 85.2261 50.3147 85.9939 50.4101V51.46H74.4769V50.4101Z" fill="#C72326"/>
<path d="M98.9504 39.6249C98.9504 33.2301 102.981 27.3125 109.604 27.3125C114.402 27.3125 116.898 30.1758 116.898 33.3255C116.898 35.0435 115.938 36.1889 114.306 36.1889C113.347 36.1889 111.523 35.6162 111.523 33.6118C111.523 31.4166 112.099 31.4166 112.099 30.3667C111.811 28.8396 111.139 28.4578 109.508 28.4578C106.724 28.4578 104.037 31.2257 104.037 39.0522C104.037 45.3515 106.341 49.6466 110.276 49.6466C113.443 49.6466 115.458 48.024 116.898 45.0652L117.954 45.8288C116.226 49.2648 112.867 52.0327 109.124 52.0327C102.406 52.0327 98.9504 46.7832 98.9504 39.6249Z" fill="#C72326"/>
<path d="M132.062 36.4752C132.062 32.7528 131.294 28.4578 128.031 28.4578C125.248 28.4578 123.232 31.703 123.04 36.5706L132.062 36.4752ZM118.05 39.5294C118.05 33.3255 121.793 27.3125 128.127 27.3125C134.653 27.3125 137.053 31.9893 137.053 37.2387V37.716H123.136V38.2886C123.136 44.9698 125.056 49.742 129.95 49.742C133.406 49.742 134.749 48.3103 136.477 45.1607L137.437 45.8288C135.805 49.5511 132.638 52.1281 128.607 52.1281C121.409 52.0327 118.05 46.4014 118.05 39.5294Z" fill="#C72326"/>
</svg>
